<?xml version="1.0" encoding="UTF-8" standalone="no"?>
<!-- Created with Inkscape (http://www.inkscape.org/) -->

<svg
   xmlns:dc="http://purl.org/dc/elements/1.1/"
   xmlns:cc="http://creativecommons.org/ns#"
   xmlns:rdf="http://www.w3.org/1999/02/22-rdf-syntax-ns#"
   xmlns:svg="http://www.w3.org/2000/svg"
   xmlns="http://www.w3.org/2000/svg"
   xmlns:xlink="http://www.w3.org/1999/xlink"
   xmlns:sodipodi="http://sodipodi.sourceforge.net/DTD/sodipodi-0.dtd"
   xmlns:inkscape="http://www.inkscape.org/namespaces/inkscape"
   width="16mm"
   height="37mm"
   viewBox="0 0 16 37"
   version="1.1"
   id="svg8"
   inkscape:version="0.92.4 (f8dce91, 2019-08-02)"
   sodipodi:docname="cricket_boreboard.svg">
  <defs
     id="defs2">
    <clipPath
       clipPathUnits="userSpaceOnUse"
       id="clipPath3778">
      <use
         x="0"
         y="0"
         xlink:href="#g3774"
         id="use3780"
         width="100%"
         height="100%" />
    </clipPath>
  </defs>
  <sodipodi:namedview
     id="base"
     pagecolor="#ffffff"
     bordercolor="#666666"
     borderopacity="1.0"
     inkscape:pageopacity="0.0"
     inkscape:pageshadow="2"
     inkscape:zoom="8"
     inkscape:cx="16.775544"
     inkscape:cy="73.182054"
     inkscape:document-units="in"
     inkscape:current-layer="layer2"
     showgrid="true"
     showguides="false"
     inkscape:window-width="3373"
     inkscape:window-height="1412"
     inkscape:window-x="67"
     inkscape:window-y="27"
     inkscape:window-maximized="1">
    <inkscape:grid
       type="xygrid"
       id="grid3715" />
  </sodipodi:namedview>
  <metadata
     id="metadata5">
    <rdf:RDF>
      <cc:Work
         rdf:about="">
        <dc:format>image/svg+xml</dc:format>
        <dc:type
           rdf:resource="http://purl.org/dc/dcmitype/StillImage" />
        <dc:title></dc:title>
      </cc:Work>
    </rdf:RDF>
  </metadata>
  <g
     inkscape:label="Layer 1"
     inkscape:groupmode="layer"
     id="layer1"
     transform="translate(0,-260)"
     style="display:inline">
    <g
       inkscape:groupmode="layer"
       id="layer4"
       inkscape:label="breadboard"
       style="display:inline">
      <path
         style="display:inline;opacity:1;fill:#225500;stroke-width:1.00336444"
         d="M 0,-0.15820312 V 139.68555 h 4.5136719 a 1.728,1.728 0 0 1 1.71875,-1.57032 1.728,1.728 0 0 1 1.7207031,1.57032 h 6.166016 a 1.728,1.728 0 0 1 1.71875,-1.56641 1.728,1.728 0 0 1 1.720703,1.56641 h 6.167968 a 1.728,1.728 0 0 1 1.71875,-1.56446 1.728,1.728 0 0 1 1.71875,1.56446 h 6.154297 a 1.728,1.728 0 0 1 1.720703,-1.57813 1.728,1.728 0 0 1 1.720704,1.57813 h 6.158203 a 1.728,1.728 0 0 1 1.722656,-1.58594 1.728,1.728 0 0 1 1.720703,1.58594 h 6.160156 a 1.728,1.728 0 0 1 1.71875,-1.57032 1.728,1.728 0 0 1 1.71875,1.57032 h 4.513672 V -0.15820312 Z M 35.021484,134.24219 a 1.728,1.728 0 0 1 1.728516,1.72851 1.728,1.728 0 0 1 -1.728516,1.72657 1.728,1.728 0 0 1 -1.726562,-1.72657 1.728,1.728 0 0 1 1.726562,-1.72851 z m 19.195313,0.008 a 1.728,1.728 0 0 1 1.728515,1.72852 1.728,1.728 0 0 1 -1.728515,1.72851 1.728,1.728 0 0 1 -1.728516,-1.72851 1.728,1.728 0 0 1 1.728516,-1.72852 z m -28.804688,0.004 a 1.728,1.728 0 0 1 1.728516,1.72851 1.728,1.728 0 0 1 -1.728516,1.72656 1.728,1.728 0 0 1 -1.728515,-1.72656 1.728,1.728 0 0 1 1.728515,-1.72851 z m 19.203125,0.006 a 1.728,1.728 0 0 1 1.728516,1.72656 1.728,1.728 0 0 1 -1.728516,1.72851 1.728,1.728 0 0 1 -1.728515,-1.72851 1.728,1.728 0 0 1 1.728515,-1.72656 z m -28.794922,0.004 a 1.728,1.728 0 0 1 1.728516,1.72852 1.728,1.728 0 0 1 -1.728516,1.72656 1.728,1.728 0 0 1 -1.728515,-1.72656 1.728,1.728 0 0 1 1.728515,-1.72852 z m -9.6132808,0.004 a 1.728,1.728 0 0 1 1.7265626,1.72851 1.728,1.728 0 0 1 -1.7265626,1.72657 1.728,1.728 0 0 1 -1.7285156,-1.72657 1.728,1.728 0 0 1 1.7285156,-1.72851 z"
         id="rect3717"
         inkscape:connector-curvature="0"
         transform="matrix(0.26458333,0,0,0.26458333,0,260)" />
      <path
         style="fill:#f7bd13;fill-opacity:1;stroke-width:2.19963598"
         d="m 22.560547,133.12305 v 6.71875 h 1.152344 a 1.728,1.728 0 0 1 1.726562,-1.71094 1.728,1.728 0 0 1 1.728516,1.71094 h 1.152343 v -6.71875 z m 2.853515,1.13281 a 1.728,1.728 0 0 1 1.728516,1.72852 1.728,1.728 0 0 1 -1.728516,1.72851 1.728,1.728 0 0 1 -1.726562,-1.72851 1.728,1.728 0 0 1 1.726562,-1.72852 z"
         transform="matrix(0.26458333,0,0,0.26458333,0,260)"
         id="rect76"
         inkscape:connector-curvature="0"
         inkscape:label="connector2pin" />
      <path
         inkscape:connector-curvature="0"
         style="display:inline;fill:#f7bd13;fill-opacity:1;stroke-width:0.58198702"
         d="M 8.5090001,295.22233 V 297 h 0.304891 A 0.4572,0.4572 0 0 1 9.2707106,296.54731 0.4572,0.4572 0 0 1 9.7280472,297 h 0.3048908 v -1.77767 z m 0.7549925,0.29972 a 0.4572,0.4572 0 0 1 0.4573365,0.45734 0.4572,0.4572 0 0 1 -0.4573365,0.45734 0.4572,0.4572 0 0 1 -0.4568196,-0.45734 0.4572,0.4572 0 0 1 0.4568196,-0.45734 z"
         id="rect76-9"
         inkscape:label="connector3pin" />
      <path
         inkscape:connector-curvature="0"
         style="display:inline;fill:#f7bd13;fill-opacity:1;stroke-width:0.58198702"
         d="M 11.049,295.22233 V 297 h 0.304891 A 0.4572,0.4572 0 0 1 11.81071,296.54731 0.4572,0.4572 0 0 1 12.268047,297 h 0.304891 v -1.77767 z m 0.754992,0.29972 a 0.4572,0.4572 0 0 1 0.457337,0.45734 0.4572,0.4572 0 0 1 -0.457337,0.45734 0.4572,0.4572 0 0 1 -0.456819,-0.45734 0.4572,0.4572 0 0 1 0.456819,-0.45734 z"
         id="rect76-9-3"
         inkscape:label="connector4pin" />
      <path
         inkscape:connector-curvature="0"
         style="display:inline;fill:#f7bd13;fill-opacity:1;stroke-width:0.58198702"
         d="M 13.589,295.22233 V 297 h 0.304891 A 0.4572,0.4572 0 0 1 14.35071,296.54731 0.4572,0.4572 0 0 1 14.808047,297 h 0.304891 v -1.77767 z m 0.754992,0.29972 a 0.4572,0.4572 0 0 1 0.457337,0.45734 0.4572,0.4572 0 0 1 -0.457337,0.45734 0.4572,0.4572 0 0 1 -0.456819,-0.45734 0.4572,0.4572 0 0 1 0.456819,-0.45734 z"
         id="rect76-9-3-1"
         inkscape:label="connector5pin" />
      <path
         inkscape:connector-curvature="0"
         style="display:inline;fill:#f7bd13;fill-opacity:1;stroke-width:0.58198702"
         d="M 3.429,295.22233 V 297 H 3.733891 A 0.4572,0.4572 0 0 1 4.19071,296.54731 0.4572,0.4572 0 0 1 4.648047,297 h 0.304891 v -1.77767 z m 0.754992,0.29972 a 0.4572,0.4572 0 0 1 0.457337,0.45734 0.4572,0.4572 0 0 1 -0.457337,0.45734 0.4572,0.4572 0 0 1 -0.456819,-0.45734 0.4572,0.4572 0 0 1 0.456819,-0.45734 z"
         id="rect76-9-3-1-9"
         inkscape:label="connector1pin" />
      <path
         inkscape:connector-curvature="0"
         style="display:inline;fill:#f7bd13;fill-opacity:1;stroke-width:0.58198702"
         d="M 0.88900001,295.22233 V 297 H 1.193891 A 0.4572,0.4572 0 0 1 1.65071,296.54731 0.4572,0.4572 0 0 1 2.108047,297 h 0.304891 v -1.77767 z m 0.75499199,0.29972 a 0.4572,0.4572 0 0 1 0.457337,0.45734 0.4572,0.4572 0 0 1 -0.457337,0.45734 0.4572,0.4572 0 0 1 -0.456819,-0.45734 0.4572,0.4572 0 0 1 0.456819,-0.45734 z"
         id="rect76-9-3-1-9-4"
         inkscape:label="connector0pin" />
      <g
         inkscape:groupmode="layer"
         id="layer2"
         inkscape:label="silkscreen">
        <path
           style="fill:none;stroke:#007f00;stroke-width:0.8582862;stroke-linecap:butt;stroke-linejoin:miter;stroke-miterlimit:4;stroke-dasharray:none;stroke-opacity:1"
           d="m 15.331286,266.0113 v -5.41197 h -4.104959 v 3.38248 H 8.8806345 v -3.38248 h -2.638903 v 3.38248 l -2.7723856,0.003 v -3.37877 l -2.79863185,-0.006 v 5.41196"
           id="path5485"
           inkscape:connector-curvature="0"
           sodipodi:nodetypes="cccccccccccc" />
        <path
           style="fill:none;stroke:#007f00;stroke-width:0.87298077;stroke-linecap:butt;stroke-linejoin:miter;stroke-miterlimit:4;stroke-dasharray:none;stroke-opacity:1"
           d="m 13.49375,260.22292 v 5.55625"
           id="path5487"
           inkscape:connector-curvature="0" />
        <text
           xml:space="preserve"
           style="font-style:normal;font-variant:normal;font-weight:normal;font-stretch:normal;font-size:1.25013864px;line-height:1.25;font-family:'Droid Sans Fallback';-inkscape-font-specification:'Droid Sans Fallback, Normal';font-variant-ligatures:normal;font-variant-caps:normal;font-variant-numeric:normal;font-feature-settings:normal;text-align:start;letter-spacing:0px;word-spacing:0px;writing-mode:lr-tb;text-anchor:start;fill:#000000;fill-opacity:1;stroke:none;stroke-width:0.26458332"
           x="4.7624998"
           y="289.32709"
           id="text5502"><tspan
             sodipodi:role="line"
             id="tspan5504"
             x="4.7624998"
             y="290.43677" /></text>
        <g
           id="g3776"
           clip-path="url(#clipPath3778)"
           transform="translate(11.298277,-1.5328539)">
          <g
             inkscape:label="Clip"
             id="g3774">
            <g
               transform="matrix(0.3527774,0,0,0.3527774,-24.169008,283.31932)"
               style="fill:#ffffff"
               id="silk">
              <polygon
                 id="polygon2049"
                 points="36.844,20.085 40.239,20.085 40.239,19.868 37.079,19.868 37.079,16.967 40.239,16.967 40.239,16.75 36.844,16.75 " />
              <polygon
                 id="polygon2051"
                 points="41.036,20.085 44.431,20.085 44.431,16.75 41.036,16.75 41.036,16.967 44.196,16.967 44.196,19.868 41.036,19.868 " />
            </g>
            <rect
               style="fill:#9a916c;stroke-width:0.35277742"
               height="0.8466658"
               width="0.8466658"
               transform="scale(-1)"
               y="-290.23975"
               x="10.159863"
               id="led-pad-left" />
            <rect
               style="fill:#9a916c;stroke-width:0.35277742"
               height="0.8466658"
               width="0.8466658"
               transform="scale(-1)"
               y="-290.23975"
               x="8.659502"
               id="led-pad-right" />
            <path
               style="fill:#cdcccc;stroke-width:0.35277742"
               inkscape:connector-curvature="0"
               d="m -8.9748847,289.81677 c 0,-0.11042 0.089605,-0.20002 0.2000248,-0.20002 V 289.464 h -2.1166641 v 0.15275 c 0.110419,0 0.200024,0.0896 0.200024,0.20002 0,0.11042 -0.08961,0.20003 -0.200024,0.20003 v 0.15275 h 2.1166641 v -0.15275 c -0.1104194,0 -0.2000248,-0.0896 -0.2000248,-0.20003 z"
               id="led-outer" />
            <rect
               style="fill:#3d55a5;stroke-width:0.35277742"
               height="0.70555484"
               width="1.4111097"
               y="289.46399"
               x="-10.538746"
               id="led-blue" />
          </g>
        </g>
        <g
           id="g4515"
           transform="translate(0.2057511,0.23555021)">
          <g
             id="svg"
             transform="matrix(0,-0.251706,0.43098363,0,-0.76880037,292.95445)">
            <rect
               style="fill:none;stroke-width:0.72249979"
               height="0.164966"
               width="0.0080057401"
               y="4.7555289"
               x="18.095375"
               id="connector0terminal" />
            <polygon
               transform="matrix(0.80057405,0,0,0.65203953,0,2.4746949)"
               style="fill:none"
               points="20.167,2.369 23.661,2.369 23.661,4.757 20.167,4.757 "
               id="connector0pin" />
            <rect
               style="fill:none;stroke-width:0.72249979"
               height="0.17539863"
               width="0.028820664"
               y="4.7555289"
               x="0.82539183"
               id="connector1terminal" />
            <polygon
               transform="matrix(0.80057405,0,0,0.65203953,0,2.4746949)"
               style="fill:none"
               points="0,2.369 3.668,2.369 3.668,4.757 0,4.757 "
               id="connector1pin" />
            <path
               id="path21_8_"
               d="m 3.5849706,7.111348 c -0.6332541,0 -0.6508667,-0.1767028 -0.6508667,-0.4075247 V 4.2149884 C 2.9325027,3.9874266 3.140652,3.8042035 3.7739061,3.8042035 H 15.296568 c 0.639659,0 0.851011,0.1845271 0.851011,0.4205655 V 6.7064314 C 16.152382,6.9372534 15.930623,7.112 15.296568,7.112 Z"
               inkscape:connector-curvature="0"
               style="fill:#474747;stroke-width:0.72249979" />
            <path
               id="path21_7_"
               d="m 3.5849706,6.4006249 c -0.6332541,0 -0.6508667,-0.1832231 -0.6508667,-0.4068727 v -3.1011 C 2.9333033,2.6676986 3.1414526,2.4851275 3.7747066,2.4851275 H 15.296568 c 0.64126,0 0.851011,0.1845272 0.851011,0.4068727 v 3.1011 c 0.0048,0.2243016 -0.216956,0.4055686 -0.851011,0.4055686 z"
               inkscape:connector-curvature="0"
               style="fill:#666666;stroke-width:0.72249979" />
            <g
               transform="matrix(0.80057405,0,0,0.65203953,0,2.4746949)"
               id="g3856">
              <ellipse
                 cx="5.3670001"
                 cy="3.0109999"
                 rx="0.64600003"
                 ry="0.48699999"
                 id="ellipse3852" />
              <ellipse
                 cx="18.417"
                 cy="3.0109999"
                 rx="0.64499998"
                 ry="0.48699999"
                 id="ellipse3854" />
            </g>
            <path
               id="path21_10_"
               d="m 13.35998,3.6255446 v 1.8785259 c 0.0016,0.1669221 -0.206548,0.3729666 -0.675685,0.3729666 H 6.3829769 c -0.4707376,0 -0.6652771,-0.2047404 -0.6668782,-0.3729666 V 3.6255446"
               inkscape:connector-curvature="0"
               style="fill:none;stroke:#333333;stroke-width:0.28899992" />
            <path
               id="path21_6_"
               d="m 6.508667,5.7903159 c -0.475541,0 -0.6660776,-0.1375804 -0.6684793,-0.312327 V 3.5394754 c 0,-0.165618 0.1553113,-0.3051545 0.6260489,-0.3051545 h 6.1468074 c 0.47394,0 0.628451,0.1493171 0.630052,0.3123269 v 1.9411217 c 0.0048,0.1767027 -0.204947,0.312327 -0.677286,0.312327 z"
               inkscape:connector-curvature="0"
               style="fill:#c4c4c4;stroke-width:0.72249979" />
            <path
               id="path21_5_"
               d="m 6.508667,5.2465149 c -0.475541,0 -0.6660776,-0.1369283 -0.6684793,-0.3123269 V 3.1358629 c 0,-0.16627 0.1553113,-0.3025463 0.6260489,-0.3025463 h 6.1468074 c 0.47394,0 0.628451,0.1362763 0.630052,0.3025463 v 1.8048455 c 0.0032,0.1767027 -0.204947,0.3123269 -0.677286,0.3123269 z"
               inkscape:connector-curvature="0"
               style="fill:#ededed;stroke-width:0.72249979" />
          </g>
        </g>
      </g>
      <path
         style="fill:none;stroke:#aa8800;stroke-width:0.50800002;stroke-linecap:butt;stroke-linejoin:miter;stroke-miterlimit:4;stroke-dasharray:none;stroke-opacity:0.94117647"
         d="M 15.610417,291.17917 H 3.175 v -3.96875 H 0.43180001 V 266.30833 H 15.51305 Z"
         id="path5498"
         inkscape:connector-curvature="0"
         sodipodi:nodetypes="ccccccc" />
      <text
         xml:space="preserve"
         style="font-style:normal;font-variant:normal;font-weight:normal;font-stretch:normal;font-size:10.58333302px;line-height:1.25;font-family:droid;-inkscape-font-specification:droid;letter-spacing:0px;word-spacing:0px;fill:#000000;fill-opacity:1;stroke:none;stroke-width:0.26458332"
         x="-20.902082"
         y="277.15625"
         id="text4755"><tspan
           sodipodi:role="line"
           id="tspan4753"
           x="-20.902082"
           y="286.52002"
           style="stroke-width:0.26458332" /><tspan
           sodipodi:role="line"
           x="-20.902082"
           y="299.74918"
           style="stroke-width:0.26458332"
           id="tspan4757" /></text>
      <g
         aria-label="BAT"
         transform="rotate(-90)"
         style="font-style:normal;font-variant:normal;font-weight:bold;font-stretch:normal;font-size:0.88194448px;line-height:1.25;font-family:droid;-inkscape-font-specification:'droid, Bold';font-variant-ligatures:normal;font-variant-caps:normal;font-variant-numeric:normal;font-feature-settings:normal;text-align:start;letter-spacing:0px;word-spacing:0px;writing-mode:lr-tb;text-anchor:start;fill:#e6e6e6;fill-opacity:1;stroke:none;stroke-width:0.26458332"
         id="text4761">
        <path
           d="m -294.83748,1.6474964 q 0.0392,0 0.0594,-0.017226 0.0202,-0.017225 0.0202,-0.050815 0,-0.033159 -0.0202,-0.050385 -0.0202,-0.017656 -0.0594,-0.017656 h -0.0917 v 0.1360813 z m 0.006,0.2812059 q 0.05,0 0.0749,-0.021101 0.0254,-0.021101 0.0254,-0.063734 0,-0.041772 -0.025,-0.062442 -0.025,-0.021101 -0.0754,-0.021101 h -0.0973 v 0.1683791 z m 0.15417,-0.231252 q 0.0534,0.015503 0.0827,0.057275 0.0293,0.041772 0.0293,0.1024916 0,0.093017 -0.0629,0.1386651 -0.0629,0.045647 -0.19121,0.045647 h -0.27517 V 1.398588 h 0.2489 q 0.13393,0 0.19379,0.04048 0.0603,0.04048 0.0603,0.1296217 0,0.046939 -0.022,0.080099 -0.022,0.032728 -0.0637,0.048662 z"
           style="font-style:normal;font-variant:normal;font-weight:bold;font-stretch:normal;font-size:0.88194448px;font-family:droid;-inkscape-font-specification:'droid, Bold';font-variant-ligatures:normal;font-variant-caps:normal;font-variant-numeric:normal;font-feature-settings:normal;text-align:start;writing-mode:lr-tb;text-anchor:start;fill:#e6e6e6;stroke-width:0.26458332"
           id="path1715"
           inkscape:connector-curvature="0" />
        <path
           d="m -294.03305,1.9243959 h -0.25925 l -0.0409,0.1171333 h -0.16665 l 0.23814,-0.642941 h 0.19766 l 0.23814,0.642941 h -0.16665 z m -0.21791,-0.1192864 h 0.17613 l -0.0879,-0.2557984 z"
           style="font-style:normal;font-variant:normal;font-weight:bold;font-stretch:normal;font-size:0.88194448px;font-family:droid;-inkscape-font-specification:'droid, Bold';font-variant-ligatures:normal;font-variant-caps:normal;font-variant-numeric:normal;font-feature-settings:normal;text-align:start;writing-mode:lr-tb;text-anchor:start;fill:#e6e6e6;stroke-width:0.26458332"
           id="path1717"
           inkscape:connector-curvature="0" />
        <path
           d="m -293.88664,1.3985882 h 0.59256 v 0.1253154 h -0.21317 v 0.5176256 h -0.16579 V 1.5239036 h -0.2136 z"
           style="font-style:normal;font-variant:normal;font-weight:bold;font-stretch:normal;font-size:0.88194448px;font-family:droid;-inkscape-font-specification:'droid, Bold';font-variant-ligatures:normal;font-variant-caps:normal;font-variant-numeric:normal;font-feature-settings:normal;text-align:start;writing-mode:lr-tb;text-anchor:start;fill:#e6e6e6;stroke-width:0.26458332"
           id="path1719"
           inkscape:connector-curvature="0" />
      </g>
      <g
         aria-label="3V3"
         transform="rotate(-90)"
         style="font-style:normal;font-variant:normal;font-weight:bold;font-stretch:normal;font-size:0.88194448px;line-height:1.25;font-family:droid;-inkscape-font-specification:'droid, Bold';font-variant-ligatures:normal;font-variant-caps:normal;font-variant-numeric:normal;font-feature-settings:normal;text-align:start;letter-spacing:0px;word-spacing:0px;writing-mode:lr-tb;text-anchor:start;display:inline;fill:#e6e6e6;fill-opacity:1;stroke:none;stroke-width:0.26458332"
         id="text4761-1">
        <path
           d="m -294.74316,4.2488191 q 0.065,0.016795 0.0986,0.058567 0.034,0.041341 0.034,0.105506 0,0.095601 -0.0732,0.1455553 -0.0732,0.049523 -0.21359,0.049523 -0.0495,0 -0.0995,-0.00818 -0.0495,-0.00775 -0.0982,-0.023685 V 4.448204 q 0.0465,0.023254 0.0922,0.035312 0.0461,0.011627 0.0904,0.011627 0.0659,0 0.10076,-0.022824 0.0353,-0.022824 0.0353,-0.065457 0,-0.043925 -0.0362,-0.066318 -0.0357,-0.022824 -0.10593,-0.022824 h -0.0663 V 4.2109231 h 0.0698 q 0.0624,0 0.093,-0.019379 0.0306,-0.019809 0.0306,-0.059858 0,-0.037035 -0.0297,-0.057275 -0.0297,-0.02024 -0.084,-0.02024 -0.0401,0 -0.081,0.00904 -0.0409,0.00904 -0.0814,0.026699 V 3.9684745 q 0.0491,-0.01378 0.0973,-0.020671 0.0482,-0.00689 0.0947,-0.00689 0.12532,0 0.18733,0.041341 0.0624,0.04091 0.0624,0.1235928 0,0.056413 -0.0297,0.092587 -0.0297,0.035743 -0.0879,0.050385 z"
           style="font-style:normal;font-variant:normal;font-weight:bold;font-stretch:normal;font-size:0.88194448px;font-family:droid;-inkscape-font-specification:'droid, Bold';font-variant-ligatures:normal;font-variant-caps:normal;font-variant-numeric:normal;font-feature-settings:normal;text-align:start;writing-mode:lr-tb;text-anchor:start;fill:#e6e6e6;stroke-width:0.26458332"
           id="path1722"
           inkscape:connector-curvature="0" />
        <path
           d="m -294.53646,3.9525409 h 0.16666 l 0.17053,0.4745619 0.1701,-0.4745619 h 0.16666 l -0.23814,0.642941 h -0.19767 z"
           style="font-style:normal;font-variant:normal;font-weight:bold;font-stretch:normal;font-size:0.88194448px;font-family:droid;-inkscape-font-specification:'droid, Bold';font-variant-ligatures:normal;font-variant-caps:normal;font-variant-numeric:normal;font-feature-settings:normal;text-align:start;writing-mode:lr-tb;text-anchor:start;fill:#e6e6e6;stroke-width:0.26458332"
           id="path1724"
           inkscape:connector-curvature="0" />
        <path
           d="m -293.44781,4.2488191 q 0.065,0.016795 0.0986,0.058567 0.034,0.041341 0.034,0.105506 0,0.095601 -0.0732,0.1455553 -0.0732,0.049523 -0.2136,0.049523 -0.0495,0 -0.0995,-0.00818 -0.0495,-0.00775 -0.0982,-0.023685 V 4.448204 q 0.0465,0.023254 0.0922,0.035312 0.0461,0.011627 0.0904,0.011627 0.0659,0 0.10077,-0.022824 0.0353,-0.022824 0.0353,-0.065457 0,-0.043925 -0.0362,-0.066318 -0.0357,-0.022824 -0.10594,-0.022824 h -0.0663 V 4.2109231 h 0.0698 q 0.0624,0 0.093,-0.019379 0.0306,-0.019809 0.0306,-0.059858 0,-0.037035 -0.0297,-0.057275 -0.0297,-0.02024 -0.084,-0.02024 -0.0401,0 -0.081,0.00904 -0.0409,0.00904 -0.0814,0.026699 V 3.9684745 q 0.0491,-0.01378 0.0973,-0.020671 0.0482,-0.00689 0.0947,-0.00689 0.12531,0 0.18732,0.041341 0.0625,0.04091 0.0625,0.1235928 0,0.056413 -0.0297,0.092587 -0.0297,0.035743 -0.0879,0.050385 z"
           style="font-style:normal;font-variant:normal;font-weight:bold;font-stretch:normal;font-size:0.88194448px;font-family:droid;-inkscape-font-specification:'droid, Bold';font-variant-ligatures:normal;font-variant-caps:normal;font-variant-numeric:normal;font-feature-settings:normal;text-align:start;writing-mode:lr-tb;text-anchor:start;fill:#e6e6e6;stroke-width:0.26458332"
           id="path1726"
           inkscape:connector-curvature="0" />
      </g>
      <g
         aria-label="WAKE"
         transform="rotate(-90)"
         style="font-style:normal;font-variant:normal;font-weight:bold;font-stretch:normal;font-size:0.88194448px;line-height:1.25;font-family:droid;-inkscape-font-specification:'droid, Bold';font-variant-ligatures:normal;font-variant-caps:normal;font-variant-numeric:normal;font-feature-settings:normal;text-align:start;letter-spacing:0px;word-spacing:0px;writing-mode:lr-tb;text-anchor:start;display:inline;fill:#e6e6e6;fill-opacity:1;stroke:none;stroke-width:0.26458332"
         id="text4761-3">
        <path
           d="m -295.09501,6.4785881 h 0.15891 l 0.1111,0.4672411 0.11024,-0.4672411 h 0.15977 l 0.11024,0.4672411 0.11111,-0.4672411 h 0.15761 l -0.15158,0.642941 h -0.19121 l -0.1167,-0.4887729 -0.11541,0.4887729 h -0.1912 z"
           style="font-style:normal;font-variant:normal;font-weight:bold;font-stretch:normal;font-size:0.88194448px;font-family:droid;-inkscape-font-specification:'droid, Bold';font-variant-ligatures:normal;font-variant-caps:normal;font-variant-numeric:normal;font-feature-settings:normal;text-align:start;writing-mode:lr-tb;text-anchor:start;fill:#e6e6e6;stroke-width:0.26458332"
           id="path1729"
           inkscape:connector-curvature="0" />
        <path
           d="m -293.71654,7.0043959 h -0.25924 l -0.0409,0.1171332 h -0.16666 l 0.23814,-0.642941 h 0.19767 l 0.23814,0.642941 h -0.16666 z m -0.2179,-0.1192865 h 0.17613 l -0.0879,-0.2557983 z"
           style="font-style:normal;font-variant:normal;font-weight:bold;font-stretch:normal;font-size:0.88194448px;font-family:droid;-inkscape-font-specification:'droid, Bold';font-variant-ligatures:normal;font-variant-caps:normal;font-variant-numeric:normal;font-feature-settings:normal;text-align:start;writing-mode:lr-tb;text-anchor:start;fill:#e6e6e6;stroke-width:0.26458332"
           id="path1731"
           inkscape:connector-curvature="0" />
        <path
           d="m -293.42457,6.4785881 h 0.1658 v 0.2346972 l 0.239,-0.2346972 h 0.1925 l -0.30963,0.3044604 0.34149,0.3384806 h -0.20756 l -0.2558,-0.2532145 v 0.2532145 h -0.1658 z"
           style="font-style:normal;font-variant:normal;font-weight:bold;font-stretch:normal;font-size:0.88194448px;font-family:droid;-inkscape-font-specification:'droid, Bold';font-variant-ligatures:normal;font-variant-caps:normal;font-variant-numeric:normal;font-feature-settings:normal;text-align:start;writing-mode:lr-tb;text-anchor:start;fill:#e6e6e6;stroke-width:0.26458332"
           id="path1733"
           inkscape:connector-curvature="0" />
        <path
           d="m -292.74072,6.4785881 h 0.44744 v 0.1253154 h -0.28164 v 0.1197171 h 0.26484 v 0.1253153 h -0.26484 v 0.1472778 h 0.29111 v 0.1253154 h -0.45691 z"
           style="font-style:normal;font-variant:normal;font-weight:bold;font-stretch:normal;font-size:0.88194448px;font-family:droid;-inkscape-font-specification:'droid, Bold';font-variant-ligatures:normal;font-variant-caps:normal;font-variant-numeric:normal;font-feature-settings:normal;text-align:start;writing-mode:lr-tb;text-anchor:start;fill:#e6e6e6;stroke-width:0.26458332"
           id="path1735"
           inkscape:connector-curvature="0" />
      </g>
      <g
         aria-label="IO2"
         transform="rotate(-90)"
         style="font-style:normal;font-variant:normal;font-weight:bold;font-stretch:normal;font-size:0.88194448px;line-height:1.25;font-family:droid;-inkscape-font-specification:'droid, Bold';font-variant-ligatures:normal;font-variant-caps:normal;font-variant-numeric:normal;font-feature-settings:normal;text-align:start;letter-spacing:0px;word-spacing:0px;writing-mode:lr-tb;text-anchor:start;display:inline;fill:#e6e6e6;fill-opacity:1;stroke:none;stroke-width:0.26458332"
         id="text4761-8">
        <path
           d="m -295.095,9.0325408 h 0.16579 v 0.642941 h -0.16579 z"
           style="font-style:normal;font-variant:normal;font-weight:bold;font-stretch:normal;font-size:0.88194448px;font-family:droid;-inkscape-font-specification:'droid, Bold';font-variant-ligatures:normal;font-variant-caps:normal;font-variant-numeric:normal;font-feature-settings:normal;text-align:start;writing-mode:lr-tb;text-anchor:start;fill:#e6e6e6;stroke-width:0.26458332"
           id="path1738"
           inkscape:connector-curvature="0" />
        <path
           d="m -294.4723,9.1410613 q -0.0758,0 -0.11757,0.055983 -0.0418,0.055983 -0.0418,0.1576132 0,0.1011997 0.0418,0.1571825 0.0418,0.055983 0.11757,0.055983 0.0762,0 0.11799,-0.055983 0.0418,-0.055983 0.0418,-0.1571825 0,-0.1016304 -0.0418,-0.1576132 -0.0418,-0.055983 -0.11799,-0.055983 z m 0,-0.1201477 q 0.15503,0 0.24288,0.088711 0.0879,0.088711 0.0879,0.2450325 0,0.1558905 -0.0879,0.2446018 -0.0879,0.088711 -0.24288,0.088711 -0.1546,0 -0.24288,-0.088711 -0.0879,-0.088711 -0.0879,-0.2446018 0,-0.1563212 0.0879,-0.2450325 0.0883,-0.088711 0.24288,-0.088711 z"
           style="font-style:normal;font-variant:normal;font-weight:bold;font-stretch:normal;font-size:0.88194448px;font-family:droid;-inkscape-font-specification:'droid, Bold';font-variant-ligatures:normal;font-variant-caps:normal;font-variant-numeric:normal;font-feature-settings:normal;text-align:start;writing-mode:lr-tb;text-anchor:start;fill:#e6e6e6;stroke-width:0.26458332"
           id="path1740"
           inkscape:connector-curvature="0" />
        <path
           d="m -293.84357,9.5536115 h 0.28292 v 0.1218703 h -0.46724 V 9.5536115 l 0.2347,-0.2071363 q 0.0314,-0.028422 0.0465,-0.055552 0.0151,-0.02713 0.0151,-0.056413 0,-0.045217 -0.0306,-0.072778 -0.0301,-0.027561 -0.0805,-0.027561 -0.0388,0 -0.0848,0.016795 -0.0461,0.016364 -0.0986,0.049093 V 9.0588097 q 0.056,-0.018517 0.11067,-0.027991 0.0547,-0.0099 0.10723,-0.0099 0.11541,0 0.17914,0.050815 0.0642,0.050815 0.0642,0.1416795 0,0.052538 -0.0271,0.098185 -0.0271,0.045217 -0.11412,0.1214396 z"
           style="font-style:normal;font-variant:normal;font-weight:bold;font-stretch:normal;font-size:0.88194448px;font-family:droid;-inkscape-font-specification:'droid, Bold';font-variant-ligatures:normal;font-variant-caps:normal;font-variant-numeric:normal;font-feature-settings:normal;text-align:start;writing-mode:lr-tb;text-anchor:start;fill:#e6e6e6;stroke-width:0.26458332"
           id="path1742"
           inkscape:connector-curvature="0" />
      </g>
      <g
         aria-label="IO3"
         transform="rotate(-90)"
         style="font-style:normal;font-variant:normal;font-weight:bold;font-stretch:normal;font-size:0.88194448px;line-height:1.25;font-family:droid;-inkscape-font-specification:'droid, Bold';font-variant-ligatures:normal;font-variant-caps:normal;font-variant-numeric:normal;font-feature-settings:normal;text-align:start;letter-spacing:0px;word-spacing:0px;writing-mode:lr-tb;text-anchor:start;display:inline;fill:#e6e6e6;fill-opacity:1;stroke:none;stroke-width:0.26458332"
         id="text4761-5">
        <path
           d="m -295.11734,11.572541 h 0.16579 v 0.642941 h -0.16579 z"
           style="font-style:normal;font-variant:normal;font-weight:bold;font-stretch:normal;font-size:0.88194448px;font-family:droid;-inkscape-font-specification:'droid, Bold';font-variant-ligatures:normal;font-variant-caps:normal;font-variant-numeric:normal;font-feature-settings:normal;text-align:start;writing-mode:lr-tb;text-anchor:start;fill:#e6e6e6;stroke-width:0.26458332"
           id="path1745"
           inkscape:connector-curvature="0" />
        <path
           d="m -294.49464,11.681061 q -0.0758,0 -0.11757,0.05598 -0.0418,0.05598 -0.0418,0.157613 0,0.1012 0.0418,0.157183 0.0418,0.05598 0.11757,0.05598 0.0762,0 0.11799,-0.05598 0.0418,-0.05598 0.0418,-0.157183 0,-0.10163 -0.0418,-0.157613 -0.0418,-0.05598 -0.11799,-0.05598 z m 0,-0.120147 q 0.15503,0 0.24288,0.08871 0.0879,0.08871 0.0879,0.245032 0,0.155891 -0.0879,0.244602 -0.0879,0.08871 -0.24288,0.08871 -0.1546,0 -0.24288,-0.08871 -0.0879,-0.08871 -0.0879,-0.244602 0,-0.156321 0.0879,-0.245032 0.0883,-0.08871 0.24288,-0.08871 z"
           style="font-style:normal;font-variant:normal;font-weight:bold;font-stretch:normal;font-size:0.88194448px;font-family:droid;-inkscape-font-specification:'droid, Bold';font-variant-ligatures:normal;font-variant-caps:normal;font-variant-numeric:normal;font-feature-settings:normal;text-align:start;writing-mode:lr-tb;text-anchor:start;fill:#e6e6e6;stroke-width:0.26458332"
           id="path1747"
           inkscape:connector-curvature="0" />
        <path
           d="m -293.70916,11.868819 q 0.065,0.0168 0.0986,0.05857 0.034,0.04134 0.034,0.105506 0,0.0956 -0.0732,0.145555 -0.0732,0.04952 -0.2136,0.04952 -0.0495,0 -0.0995,-0.0082 -0.0495,-0.0078 -0.0982,-0.02368 v -0.127899 q 0.0465,0.02325 0.0922,0.03531 0.0461,0.01163 0.0904,0.01163 0.0659,0 0.10077,-0.02282 0.0353,-0.02282 0.0353,-0.06546 0,-0.04392 -0.0362,-0.06632 -0.0358,-0.02282 -0.10594,-0.02282 h -0.0663 v -0.106798 h 0.0698 q 0.0624,0 0.093,-0.01938 0.0306,-0.01981 0.0306,-0.05986 0,-0.03703 -0.0297,-0.05727 -0.0297,-0.02024 -0.084,-0.02024 -0.0401,0 -0.081,0.009 -0.0409,0.009 -0.0814,0.0267 v -0.12144 q 0.0491,-0.01378 0.0973,-0.02067 0.0482,-0.0069 0.0947,-0.0069 0.12532,0 0.18733,0.04134 0.0624,0.04091 0.0624,0.123593 0,0.05641 -0.0297,0.09259 -0.0297,0.03574 -0.0879,0.05039 z"
           style="font-style:normal;font-variant:normal;font-weight:bold;font-stretch:normal;font-size:0.88194448px;font-family:droid;-inkscape-font-specification:'droid, Bold';font-variant-ligatures:normal;font-variant-caps:normal;font-variant-numeric:normal;font-feature-settings:normal;text-align:start;writing-mode:lr-tb;text-anchor:start;fill:#e6e6e6;stroke-width:0.26458332"
           id="path1749"
           inkscape:connector-curvature="0" />
      </g>
      <g
         aria-label="GND"
         transform="rotate(-90)"
         style="font-style:normal;font-variant:normal;font-weight:bold;font-stretch:normal;font-size:0.88194448px;line-height:1.25;font-family:droid;-inkscape-font-specification:'droid, Bold';font-variant-ligatures:normal;font-variant-caps:normal;font-variant-numeric:normal;font-feature-settings:normal;text-align:start;letter-spacing:0px;word-spacing:0px;writing-mode:lr-tb;text-anchor:start;display:inline;fill:#e6e6e6;fill-opacity:1;stroke:none;stroke-width:0.26458332"
         id="text4761-9">
        <path
           d="m -294.48004,14.703767 q -0.062,0.03015 -0.12876,0.04522 -0.0668,0.01507 -0.13781,0.01507 -0.16062,0 -0.2545,-0.08957 -0.0939,-0.09 -0.0939,-0.243741 0,-0.15546 0.0956,-0.244601 0.0956,-0.08914 0.26183,-0.08914 0.0642,0 0.12273,0.01206 0.059,0.01206 0.1111,0.03574 v 0.133067 q -0.0538,-0.03058 -0.10723,-0.04565 -0.053,-0.01507 -0.10636,-0.01507 -0.0991,0 -0.15288,0.05555 -0.0534,0.05512 -0.0534,0.158043 0,0.102061 0.0517,0.157613 0.0517,0.05555 0.14685,0.05555 0.0258,0 0.0478,-0.003 0.0224,-0.0034 0.0401,-0.01033 v -0.124885 h -0.1012 V 14.39457 h 0.25838 z"
           style="font-style:normal;font-variant:normal;font-weight:bold;font-stretch:normal;font-size:0.88194448px;font-family:droid;-inkscape-font-specification:'droid, Bold';font-variant-ligatures:normal;font-variant-caps:normal;font-variant-numeric:normal;font-feature-settings:normal;text-align:start;writing-mode:lr-tb;text-anchor:start;fill:#e6e6e6;stroke-width:0.26458332"
           id="path1752"
           inkscape:connector-curvature="0" />
        <path
           d="m -294.33449,14.108627 h 0.18518 l 0.23383,0.440972 v -0.440972 h 0.15719 v 0.642941 h -0.18518 l -0.23383,-0.440972 v 0.440972 h -0.15719 z"
           style="font-style:normal;font-variant:normal;font-weight:bold;font-stretch:normal;font-size:0.88194448px;font-family:droid;-inkscape-font-specification:'droid, Bold';font-variant-ligatures:normal;font-variant-caps:normal;font-variant-numeric:normal;font-feature-settings:normal;text-align:start;writing-mode:lr-tb;text-anchor:start;fill:#e6e6e6;stroke-width:0.26458332"
           id="path1754"
           inkscape:connector-curvature="0" />
        <path
           d="m -293.42972,14.233942 v 0.39231 h 0.0594 q 0.10163,0 0.15503,-0.05038 0.0538,-0.05039 0.0538,-0.146417 0,-0.0956 -0.0534,-0.145555 -0.0534,-0.04995 -0.15546,-0.04995 z m -0.16579,-0.125315 h 0.17484 q 0.14641,0 0.2179,0.0211 0.0719,0.02067 0.12316,0.07062 0.0452,0.04349 0.0672,0.100338 0.022,0.05684 0.022,0.12876 0,0.07278 -0.022,0.130053 -0.022,0.05684 -0.0672,0.100338 -0.0517,0.04995 -0.12402,0.07106 -0.0724,0.02067 -0.21704,0.02067 h -0.17484 z"
           style="font-style:normal;font-variant:normal;font-weight:bold;font-stretch:normal;font-size:0.88194448px;font-family:droid;-inkscape-font-specification:'droid, Bold';font-variant-ligatures:normal;font-variant-caps:normal;font-variant-numeric:normal;font-feature-settings:normal;text-align:start;writing-mode:lr-tb;text-anchor:start;fill:#e6e6e6;stroke-width:0.26458332"
           id="path1756"
           inkscape:connector-curvature="0" />
      </g>
      <g
         aria-label="ThingsOnEdge"
         style="font-style:normal;font-variant:normal;font-weight:bold;font-stretch:normal;font-size:1.41111112px;line-height:1.25;font-family:droid;-inkscape-font-specification:'droid, Bold';font-variant-ligatures:normal;font-variant-caps:normal;font-variant-numeric:normal;font-feature-settings:normal;text-align:start;letter-spacing:0px;word-spacing:0px;writing-mode:lr-tb;text-anchor:start;display:inline;fill:#e6e6e6;fill-opacity:1;stroke:none;stroke-width:0.26458332"
         id="text4761-3-6">
        <path
           d="m 1.4040074,279.82933 h 0.9480903 v 0.2005 H 2.0110333 v 0.8282 H 1.7457609 v -0.8282 H 1.4040074 Z"
           style="font-style:normal;font-variant:normal;font-weight:bold;font-stretch:normal;font-size:1.41111112px;font-family:droid;-inkscape-font-specification:'droid, Bold';font-variant-ligatures:normal;font-variant-caps:normal;font-variant-numeric:normal;font-feature-settings:normal;text-align:start;writing-mode:lr-tb;text-anchor:start;fill:#e6e6e6;stroke-width:0.26458332"
           id="path1672"
           inkscape:connector-curvature="0" />
        <path
           d="m 3.2533347,280.38812 v 0.46991 H 3.0052878 v -0.0765 -0.28181 q 0,-0.10128 -0.00482,-0.13918 -0.00413,-0.0379 -0.015158,-0.0558 -0.014469,-0.0241 -0.039274,-0.0372 -0.024805,-0.0138 -0.0565,-0.0138 -0.07717,0 -0.1212673,0.06 -0.044097,0.0592 -0.044097,0.16467 v 0.37965 H 2.4774992 v -1.07211 h 0.2466689 v 0.41341 q 0.055811,-0.0675 0.1185112,-0.0992 0.062701,-0.0324 0.1384929,-0.0324 0.1336697,0 0.2025716,0.082 0.069591,0.082 0.069591,0.2384 z"
           style="font-style:normal;font-variant:normal;font-weight:bold;font-stretch:normal;font-size:1.41111112px;font-family:droid;-inkscape-font-specification:'droid, Bold';font-variant-ligatures:normal;font-variant-caps:normal;font-variant-numeric:normal;font-feature-settings:normal;text-align:start;writing-mode:lr-tb;text-anchor:start;fill:#e6e6e6;stroke-width:0.26458332"
           id="path1674"
           inkscape:connector-curvature="0" />
        <path
           d="m 3.4834671,280.08633 h 0.2466688 v 0.7717 H 3.4834671 Z m 0,-0.30041 h 0.2466688 v 0.20119 H 3.4834671 Z"
           style="font-style:normal;font-variant:normal;font-weight:bold;font-stretch:normal;font-size:1.41111112px;font-family:droid;-inkscape-font-specification:'droid, Bold';font-variant-ligatures:normal;font-variant-caps:normal;font-variant-numeric:normal;font-feature-settings:normal;text-align:start;writing-mode:lr-tb;text-anchor:start;fill:#e6e6e6;stroke-width:0.26458332"
           id="path1676"
           inkscape:connector-curvature="0" />
        <path
           d="m 4.7443721,280.38812 v 0.46991 H 4.4963252 v -0.0765 -0.28319 q 0,-0.0999 -0.00482,-0.1378 -0.00413,-0.0379 -0.015158,-0.0558 -0.014469,-0.0241 -0.039274,-0.0372 -0.024805,-0.0138 -0.0565,-0.0138 -0.07717,0 -0.1212674,0.06 -0.044097,0.0592 -0.044097,0.16467 v 0.37965 H 3.9685366 v -0.7717 h 0.2466688 v 0.113 q 0.055811,-0.0675 0.1185113,-0.0992 0.062701,-0.0324 0.1384928,-0.0324 0.1336697,0 0.2025717,0.082 0.069591,0.082 0.069591,0.2384 z"
           style="font-style:normal;font-variant:normal;font-weight:bold;font-stretch:normal;font-size:1.41111112px;font-family:droid;-inkscape-font-specification:'droid, Bold';font-variant-ligatures:normal;font-variant-caps:normal;font-variant-numeric:normal;font-feature-settings:normal;text-align:start;writing-mode:lr-tb;text-anchor:start;fill:#e6e6e6;stroke-width:0.26458332"
           id="path1678"
           inkscape:connector-curvature="0" />
        <path
           d="m 5.499537,280.72712 q -0.050987,0.0675 -0.1123101,0.0992 -0.061323,0.0317 -0.141938,0.0317 -0.1412489,0 -0.2335774,-0.11093 -0.092329,-0.11162 -0.092329,-0.28388 0,-0.17294 0.092329,-0.28318 0.092329,-0.11093 0.2335774,-0.11093 0.080615,0 0.141938,0.0317 0.061323,0.0317 0.1123101,0.0999 v -0.11438 h 0.2480469 v 0.69384 q 0,0.18604 -0.1178223,0.28388 -0.1171332,0.0985 -0.3403754,0.0985 -0.072347,0 -0.1398709,-0.011 -0.067524,-0.011 -0.1357368,-0.0338 v -0.19223 q 0.064768,0.0372 0.1267795,0.0551 0.062012,0.0186 0.1247125,0.0186 0.1212674,0 0.1777669,-0.053 0.0565,-0.0531 0.0565,-0.16606 z m -0.1626085,-0.48025 q -0.076481,0 -0.1192003,0.0565 -0.042719,0.0565 -0.042719,0.15985 0,0.10611 0.041341,0.16123 0.041341,0.0544 0.1205784,0.0544 0.07717,0 0.1198893,-0.0565 0.042719,-0.0565 0.042719,-0.15917 0,-0.10335 -0.042719,-0.15985 -0.042719,-0.0565 -0.1198893,-0.0565 z"
           style="font-style:normal;font-variant:normal;font-weight:bold;font-stretch:normal;font-size:1.41111112px;font-family:droid;-inkscape-font-specification:'droid, Bold';font-variant-ligatures:normal;font-variant-caps:normal;font-variant-numeric:normal;font-feature-settings:normal;text-align:start;writing-mode:lr-tb;text-anchor:start;fill:#e6e6e6;stroke-width:0.26458332"
           id="path1680"
           inkscape:connector-curvature="0" />
        <path
           d="m 6.5888762,280.11045 v 0.18741 q -0.079237,-0.0331 -0.1529622,-0.0496 -0.073725,-0.0165 -0.1391819,-0.0165 -0.07028,0 -0.1047309,0.0179 -0.033762,0.0172 -0.033762,0.0537 0,0.0296 0.025494,0.0455 0.026183,0.0158 0.093018,0.0234 l 0.043408,0.006 q 0.1894802,0.0241 0.2549371,0.0792 0.065457,0.0551 0.065457,0.17295 0,0.12333 -0.09095,0.18534 -0.090951,0.062 -0.2714736,0.062 -0.076481,0 -0.1584744,-0.0124 -0.081304,-0.0117 -0.1674316,-0.0358 v -0.18741 q 0.073725,0.0358 0.1508952,0.0537 0.077859,0.0179 0.1577854,0.0179 0.072347,0 0.108865,-0.02 0.036518,-0.02 0.036518,-0.0593 0,-0.0331 -0.025494,-0.0489 -0.024805,-0.0165 -0.099908,-0.0255 l -0.043408,-0.006 q -0.1646756,-0.0207 -0.2308214,-0.0765 -0.066146,-0.0558 -0.066146,-0.1695 0,-0.12264 0.08406,-0.1819 0.08406,-0.0593 0.2576931,-0.0593 0.068213,0 0.143316,0.0103 0.075103,0.0103 0.1632975,0.0324 z"
           style="font-style:normal;font-variant:normal;font-weight:bold;font-stretch:normal;font-size:1.41111112px;font-family:droid;-inkscape-font-specification:'droid, Bold';font-variant-ligatures:normal;font-variant-caps:normal;font-variant-numeric:normal;font-feature-settings:normal;text-align:start;writing-mode:lr-tb;text-anchor:start;fill:#e6e6e6;stroke-width:0.26458332"
           id="path1682"
           inkscape:connector-curvature="0" />
        <path
           d="m 7.3075232,280.00296 q -0.1212673,0 -0.1881022,0.0896 -0.066835,0.0896 -0.066835,0.25218 0,0.16192 0.066835,0.25149 0.066835,0.0896 0.1881022,0.0896 0.1219564,0 0.1887912,-0.0896 0.066835,-0.0896 0.066835,-0.25149 0,-0.16261 -0.066835,-0.25218 -0.066835,-0.0896 -0.1887912,-0.0896 z m 0,-0.19224 q 0.2480469,0 0.3886068,0.14194 0.1405599,0.14194 0.1405599,0.39205 0,0.24943 -0.1405599,0.39137 -0.1405599,0.14193 -0.3886068,0.14193 -0.2473578,0 -0.3886068,-0.14193 -0.1405599,-0.14194 -0.1405599,-0.39137 0,-0.25011 0.1405599,-0.39205 0.141249,-0.14194 0.3886068,-0.14194 z"
           style="font-style:normal;font-variant:normal;font-weight:bold;font-stretch:normal;font-size:1.41111112px;font-family:droid;-inkscape-font-specification:'droid, Bold';font-variant-ligatures:normal;font-variant-caps:normal;font-variant-numeric:normal;font-feature-settings:normal;text-align:start;writing-mode:lr-tb;text-anchor:start;fill:#e6e6e6;stroke-width:0.26458332"
           id="path1684"
           inkscape:connector-curvature="0" />
        <path
           d="m 8.8013165,280.38812 v 0.46991 H 8.5532696 v -0.0765 -0.28319 q 0,-0.0999 -0.00482,-0.1378 -0.00413,-0.0379 -0.015158,-0.0558 -0.014469,-0.0241 -0.039274,-0.0372 -0.024805,-0.0138 -0.0565,-0.0138 -0.07717,0 -0.1212674,0.06 -0.044097,0.0592 -0.044097,0.16467 v 0.37965 H 8.025481 v -0.7717 h 0.2466688 v 0.113 q 0.055811,-0.0675 0.1185113,-0.0992 0.062701,-0.0324 0.1384928,-0.0324 0.1336697,0 0.2025716,0.082 0.069591,0.082 0.069591,0.2384 z"
           style="font-style:normal;font-variant:normal;font-weight:bold;font-stretch:normal;font-size:1.41111112px;font-family:droid;-inkscape-font-specification:'droid, Bold';font-variant-ligatures:normal;font-variant-caps:normal;font-variant-numeric:normal;font-feature-settings:normal;text-align:start;writing-mode:lr-tb;text-anchor:start;fill:#e6e6e6;stroke-width:0.26458332"
           id="path1686"
           inkscape:connector-curvature="0" />
        <path
           d="m 9.0424734,279.82933 h 0.7158908 v 0.2005 H 9.3077457 v 0.19155 h 0.4237468 v 0.2005 H 9.3077457 v 0.23565 h 0.4657769 v 0.2005 H 9.0424734 Z"
           style="font-style:normal;font-variant:normal;font-weight:bold;font-stretch:normal;font-size:1.41111112px;font-family:droid;-inkscape-font-specification:'droid, Bold';font-variant-ligatures:normal;font-variant-caps:normal;font-variant-numeric:normal;font-feature-settings:normal;text-align:start;writing-mode:lr-tb;text-anchor:start;fill:#e6e6e6;stroke-width:0.26458332"
           id="path1688"
           inkscape:connector-curvature="0" />
        <path
           d="m 10.521108,280.19933 v -0.41341 h 0.248047 v 1.07211 h -0.248047 v -0.11162 q -0.05099,0.0682 -0.11231,0.0999 -0.06132,0.0317 -0.141938,0.0317 -0.142627,0 -0.234267,-0.113 -0.091639,-0.11368 -0.091639,-0.29214 0,-0.17846 0.091639,-0.29145 0.09164,-0.11369 0.234267,-0.11369 0.07993,0 0.141249,0.0324 0.06201,0.0317 0.112999,0.0992 z m -0.162609,0.49954 q 0.07924,0 0.120579,-0.0579 0.04203,-0.0579 0.04203,-0.16812 0,-0.11024 -0.04203,-0.16812 -0.04134,-0.0579 -0.120579,-0.0579 -0.07855,0 -0.120578,0.0579 -0.04134,0.0579 -0.04134,0.16812 0,0.11024 0.04134,0.16812 0.04203,0.0579 0.120578,0.0579 z"
           style="font-style:normal;font-variant:normal;font-weight:bold;font-stretch:normal;font-size:1.41111112px;font-family:droid;-inkscape-font-specification:'droid, Bold';font-variant-ligatures:normal;font-variant-caps:normal;font-variant-numeric:normal;font-feature-settings:normal;text-align:start;writing-mode:lr-tb;text-anchor:start;fill:#e6e6e6;stroke-width:0.26458332"
           id="path1690"
           inkscape:connector-curvature="0" />
        <path
           d="m 11.532588,280.72712 q -0.05099,0.0675 -0.11231,0.0992 -0.06132,0.0317 -0.141938,0.0317 -0.141249,0 -0.233577,-0.11093 -0.09233,-0.11162 -0.09233,-0.28388 0,-0.17294 0.09233,-0.28318 0.09233,-0.11093 0.233577,-0.11093 0.08061,0 0.141938,0.0317 0.06132,0.0317 0.11231,0.0999 v -0.11438 h 0.248047 v 0.69384 q 0,0.18604 -0.117822,0.28388 -0.117133,0.0985 -0.340376,0.0985 -0.07235,0 -0.13987,-0.011 -0.06752,-0.011 -0.135737,-0.0338 v -0.19223 q 0.06477,0.0372 0.126779,0.0551 0.06201,0.0186 0.124713,0.0186 0.121267,0 0.177767,-0.053 0.0565,-0.0531 0.0565,-0.16606 z m -0.162608,-0.48025 q -0.07648,0 -0.119201,0.0565 -0.04272,0.0565 -0.04272,0.15985 0,0.10611 0.04134,0.16123 0.04134,0.0544 0.120579,0.0544 0.07717,0 0.119889,-0.0565 0.04272,-0.0565 0.04272,-0.15917 0,-0.10335 -0.04272,-0.15985 -0.04272,-0.0565 -0.119889,-0.0565 z"
           style="font-style:normal;font-variant:normal;font-weight:bold;font-stretch:normal;font-size:1.41111112px;font-family:droid;-inkscape-font-specification:'droid, Bold';font-variant-ligatures:normal;font-variant-caps:normal;font-variant-numeric:normal;font-feature-settings:normal;text-align:start;writing-mode:lr-tb;text-anchor:start;fill:#e6e6e6;stroke-width:0.26458332"
           id="path1692"
           inkscape:connector-curvature="0" />
        <path
           d="m 12.789359,280.47011 v 0.0703 H 12.21265 q 0.009,0.0868 0.0627,0.13023 0.05374,0.0434 0.150206,0.0434 0.07786,0 0.159164,-0.0227 0.08199,-0.0234 0.16812,-0.0703 v 0.19017 q -0.08751,0.0331 -0.17501,0.0496 -0.08751,0.0172 -0.175011,0.0172 -0.209462,0 -0.325906,-0.10611 -0.115756,-0.10679 -0.115756,-0.29903 0,-0.18879 0.113689,-0.29697 0.114377,-0.10817 0.314192,-0.10817 0.181901,0 0.290766,0.10955 0.109554,0.10956 0.109555,0.29283 z m -0.253559,-0.082 q 0,-0.0703 -0.04134,-0.113 -0.04065,-0.0434 -0.106798,-0.0434 -0.07166,0 -0.116444,0.0407 -0.04479,0.04 -0.05581,0.11575 z"
           style="font-style:normal;font-variant:normal;font-weight:bold;font-stretch:normal;font-size:1.41111112px;font-family:droid;-inkscape-font-specification:'droid, Bold';font-variant-ligatures:normal;font-variant-caps:normal;font-variant-numeric:normal;font-feature-settings:normal;text-align:start;writing-mode:lr-tb;text-anchor:start;fill:#e6e6e6;stroke-width:0.26458332"
           id="path1694"
           inkscape:connector-curvature="0" />
      </g>
      <g
         aria-label="Cricket"
         style="font-style:normal;font-variant:normal;font-weight:bold;font-stretch:normal;font-size:1.76388896px;line-height:1.25;font-family:droid;-inkscape-font-specification:'droid, Bold';font-variant-ligatures:normal;font-variant-caps:normal;font-variant-numeric:normal;font-feature-settings:normal;text-align:start;letter-spacing:0px;word-spacing:0px;writing-mode:lr-tb;text-anchor:start;display:inline;fill:#e6e6e6;fill-opacity:1;stroke:none;stroke-width:0.26458332"
         id="text4761-3-6-4">
        <path
           d="m 2.5044129,278.93801 q -0.091295,0.0474 -0.1903416,0.0715 -0.099047,0.0241 -0.2067057,0.0241 -0.3212552,0 -0.5090129,-0.17914 -0.1877577,-0.18001 -0.1877577,-0.48748 0,-0.30834 0.1877577,-0.48748 0.1877577,-0.18001 0.5090129,-0.18001 0.1076592,0 0.2067057,0.0241 0.099047,0.0241 0.1903416,0.0715 v 0.26614 q -0.092156,-0.0629 -0.1817288,-0.0922 -0.089573,-0.0293 -0.188619,-0.0293 -0.1774224,0 -0.2790527,0.11368 -0.1016304,0.11369 -0.1016304,0.31351 0,0.19895 0.1016304,0.31264 0.1016303,0.11369 0.2790527,0.11369 0.099047,0 0.188619,-0.0293 0.089573,-0.0293 0.1817288,-0.0922 z"
           style="font-style:normal;font-variant:normal;font-weight:bold;font-stretch:normal;font-size:1.76388896px;font-family:droid;-inkscape-font-specification:'droid, Bold';font-variant-ligatures:normal;font-variant-caps:normal;font-variant-numeric:normal;font-feature-settings:normal;text-align:start;writing-mode:lr-tb;text-anchor:start;fill:#e6e6e6;stroke-width:0.26458332"
           id="path1697"
           inkscape:connector-curvature="0" />
        <path
           d="m 3.48282,278.3067 q -0.04048,-0.0189 -0.08096,-0.0276 -0.039619,-0.009 -0.080099,-0.009 -0.1188558,0 -0.1834514,0.0767 -0.063734,0.0758 -0.063734,0.2179 v 0.44442 H 2.7662401 v -0.96463 h 0.3083361 v 0.15847 q 0.059428,-0.0947 0.1360812,-0.1378 0.077515,-0.0439 0.1851739,-0.0439 0.015503,0 0.03359,0.002 0.018087,8.6e-4 0.052538,0.005 z"
           style="font-style:normal;font-variant:normal;font-weight:bold;font-stretch:normal;font-size:1.76388896px;font-family:droid;-inkscape-font-specification:'droid, Bold';font-variant-ligatures:normal;font-variant-caps:normal;font-variant-numeric:normal;font-feature-settings:normal;text-align:start;writing-mode:lr-tb;text-anchor:start;fill:#e6e6e6;stroke-width:0.26458332"
           id="path1699"
           inkscape:connector-curvature="0" />
        <path
           d="m 3.6378492,278.04401 h 0.3083361 v 0.96463 H 3.6378492 Z m 0,-0.37552 h 0.3083361 v 0.2515 H 3.6378492 Z"
           style="font-style:normal;font-variant:normal;font-weight:bold;font-stretch:normal;font-size:1.76388896px;font-family:droid;-inkscape-font-specification:'droid, Bold';font-variant-ligatures:normal;font-variant-caps:normal;font-variant-numeric:normal;font-feature-settings:normal;text-align:start;writing-mode:lr-tb;text-anchor:start;fill:#e6e6e6;stroke-width:0.26458332"
           id="path1701"
           inkscape:connector-curvature="0" />
        <path
           d="m 5.0236392,278.07415 v 0.2515 q -0.062873,-0.0431 -0.1266073,-0.0637 -0.062873,-0.0207 -0.1309136,-0.0207 -0.1291911,0 -0.2015381,0.0758 -0.071486,0.0749 -0.071486,0.21015 0,0.13522 0.071486,0.21102 0.072347,0.0749 0.2015381,0.0749 0.072347,0 0.1369425,-0.0215 0.065457,-0.0215 0.1205784,-0.0637 v 0.25235 q -0.072347,0.0267 -0.1472779,0.0396 -0.07407,0.0138 -0.1490004,0.0138 -0.260966,0 -0.4082438,-0.13349 -0.1472778,-0.13436 -0.1472778,-0.37294 0,-0.23857 0.1472778,-0.37207 0.1472778,-0.13435 0.4082438,-0.13435 0.075792,0 0.1490004,0.0138 0.07407,0.0129 0.1472779,0.0396 z"
           style="font-style:normal;font-variant:normal;font-weight:bold;font-stretch:normal;font-size:1.76388896px;font-family:droid;-inkscape-font-specification:'droid, Bold';font-variant-ligatures:normal;font-variant-caps:normal;font-variant-numeric:normal;font-feature-settings:normal;text-align:start;writing-mode:lr-tb;text-anchor:start;fill:#e6e6e6;stroke-width:0.26458332"
           id="path1703"
           inkscape:connector-curvature="0" />
        <path
           d="m 5.2914952,277.66849 h 0.3083361 v 0.7295 l 0.3548448,-0.35398 H 6.312966 l -0.4711168,0.44269 0.5081516,0.52194 H 5.9762079 l -0.3763766,-0.40222 v 0.40222 H 5.2914952 Z"
           style="font-style:normal;font-variant:normal;font-weight:bold;font-stretch:normal;font-size:1.76388896px;font-family:droid;-inkscape-font-specification:'droid, Bold';font-variant-ligatures:normal;font-variant-caps:normal;font-variant-numeric:normal;font-feature-settings:normal;text-align:start;writing-mode:lr-tb;text-anchor:start;fill:#e6e6e6;stroke-width:0.26458332"
           id="path1705"
           inkscape:connector-curvature="0" />
        <path
           d="m 7.3809458,278.52374 v 0.0879 H 6.6600595 q 0.011197,0.10852 0.078376,0.16278 0.067179,0.0543 0.1877577,0.0543 0.097324,0 0.1989543,-0.0284 0.1024915,-0.0293 0.2101508,-0.0879 v 0.23771 q -0.1093818,0.0413 -0.2187636,0.062 -0.1093818,0.0215 -0.2187636,0.0215 -0.2618272,0 -0.4073825,-0.13263 -0.144694,-0.1335 -0.144694,-0.3738 0,-0.23598 0.1421102,-0.3712 0.1429714,-0.13522 0.3927409,-0.13522 0.2273763,0 0.3634576,0.13694 0.1369425,0.13694 0.1369425,0.36604 z M 7.063997,278.42125 q 0,-0.0879 -0.051676,-0.14125 -0.050815,-0.0543 -0.1334975,-0.0543 -0.089573,0 -0.1455553,0.0508 -0.055983,0.05 -0.069763,0.1447 z"
           style="font-style:normal;font-variant:normal;font-weight:bold;font-stretch:normal;font-size:1.76388896px;font-family:droid;-inkscape-font-specification:'droid, Bold';font-variant-ligatures:normal;font-variant-caps:normal;font-variant-numeric:normal;font-feature-settings:normal;text-align:start;writing-mode:lr-tb;text-anchor:start;fill:#e6e6e6;stroke-width:0.26458332"
           id="path1707"
           inkscape:connector-curvature="0" />
        <path
           d="m 7.9502476,277.77012 v 0.27389 h 0.3178101 v 0.22049 H 7.9502476 v 0.4091 q 0,0.0672 0.0267,0.0913 0.026699,0.0232 0.1059367,0.0232 h 0.1584744 v 0.22049 H 7.9769471 q -0.1825901,0 -0.2592435,-0.0758 -0.075792,-0.0766 -0.075792,-0.25924 v -0.4091 H 7.4886048 v -0.22049 h 0.1533067 v -0.27389 z"
           style="font-style:normal;font-variant:normal;font-weight:bold;font-stretch:normal;font-size:1.76388896px;font-family:droid;-inkscape-font-specification:'droid, Bold';font-variant-ligatures:normal;font-variant-caps:normal;font-variant-numeric:normal;font-feature-settings:normal;text-align:start;writing-mode:lr-tb;text-anchor:start;fill:#e6e6e6;stroke-width:0.26458332"
           id="path1709"
           inkscape:connector-curvature="0" />
      </g>
      <text
         xml:space="preserve"
         style="font-style:normal;font-variant:normal;font-weight:normal;font-stretch:normal;font-size:10.58333302px;line-height:1.25;font-family:droid;-inkscape-font-specification:droid;letter-spacing:0px;word-spacing:0px;fill:#000000;fill-opacity:1;stroke:none;stroke-width:0.26458332"
         x="7.1437497"
         y="279.53751"
         id="text1666"><tspan
           sodipodi:role="line"
           id="tspan1664"
           x="7.1437497"
           y="288.90128"
           style="stroke-width:0.26458332" /></text>
      <g
         aria-label=""
         style="font-style:normal;font-variant:normal;font-weight:bold;font-stretch:normal;font-size:1.0583334px;line-height:1.25;font-family:droid;-inkscape-font-specification:'droid, Bold';font-variant-ligatures:normal;font-variant-caps:normal;font-variant-numeric:normal;font-feature-settings:normal;text-align:start;letter-spacing:0px;word-spacing:0px;writing-mode:lr-tb;text-anchor:start;fill:#e6e6e6;fill-opacity:1;stroke:none;stroke-width:0.26458332"
         id="text1670">
        <path
           d="m 9.1194291,277.77096 q -0.062528,0 -0.116272,0.0227 -0.053743,0.0222 -0.098702,0.0672 -0.044958,0.045 -0.067696,0.0987 -0.022221,0.0532 -0.022221,0.11627 0,0.0625 0.022221,0.11627 0.022738,0.0532 0.067696,0.0982 0.044442,0.0444 0.098185,0.0667 0.05426,0.0222 0.1167887,0.0222 0.063562,0 0.1167888,-0.0217 0.053227,-0.0222 0.098185,-0.0672 0.044958,-0.045 0.067179,-0.0982 0.022738,-0.0537 0.022738,-0.11627 0,-0.063 -0.022738,-0.11627 -0.022221,-0.0538 -0.067179,-0.0987 -0.045475,-0.0455 -0.099219,-0.0677 -0.053227,-0.0222 -0.1157545,-0.0222 z m -0.029456,0.15244 h -0.018087 v 0.10697 h 0.018087 q 0.040308,0 0.060462,-0.0134 0.02067,-0.014 0.02067,-0.0408 0,-0.0269 -0.020154,-0.0398 -0.019637,-0.0129 -0.060978,-0.0129 z m 0.01912,-0.0713 q 0.090951,0 0.135909,0.031 0.044958,0.0305 0.044958,0.093 0,0.0444 -0.027389,0.0734 -0.026872,0.0289 -0.076481,0.0377 0.021187,0.0114 0.039274,0.032 0.018603,0.0207 0.03359,0.0506 l 0.057361,0.1142 h -0.118339 l -0.055294,-0.11007 q -0.019637,-0.0403 -0.034623,-0.0568 -0.014986,-0.017 -0.029972,-0.017 h -0.0062 v 0.18396 H 8.961816 v -0.43201 z m 0.010335,-0.16071 q 0.078548,0 0.1462443,0.0284 0.068213,0.0284 0.1245402,0.0847 0.056327,0.0563 0.084233,0.12402 0.027905,0.0677 0.027905,0.14728 0,0.0786 -0.027905,0.14624 -0.027905,0.0672 -0.084233,0.12351 -0.056327,0.0563 -0.1245402,0.0847 -0.067696,0.0284 -0.1462443,0.0284 -0.078548,0 -0.1467611,-0.0284 -0.067696,-0.0284 -0.1240234,-0.0847 -0.056327,-0.0563 -0.084233,-0.12351 -0.027905,-0.0677 -0.027905,-0.14624 0,-0.0796 0.027905,-0.14728 0.027905,-0.0677 0.084233,-0.12402 0.056327,-0.0563 0.1240234,-0.0847 0.068213,-0.0284 0.1467611,-0.0284 z"
           style="font-style:normal;font-variant:normal;font-weight:bold;font-stretch:normal;font-size:1.0583334px;font-family:droid;-inkscape-font-specification:'droid, Bold';font-variant-ligatures:normal;font-variant-caps:normal;font-variant-numeric:normal;font-feature-settings:normal;text-align:start;writing-mode:lr-tb;text-anchor:start;fill:#e6e6e6;stroke-width:0.26458332"
           id="path1712"
           inkscape:connector-curvature="0" />
      </g>
    </g>
  </g>
</svg>
