<?xml version='1.0' encoding='UTF-8' standalone='no'?>
<!-- Created with Fritzing (http://www.fritzing.org/) -->
<svg xmlns:svg='http://www.w3.org/2000/svg' xmlns='http://www.w3.org/2000/svg' version='1.2' baseProfile='tiny' x='0in' y='0in' width='4.1883in' height='5.0717in' viewBox='0 0 301.558 365.162' >
<g partID='854134650'><g transform='translate(236.758,192.31)' ><g  id="breadboard">
 <g  id="icon">
  <path  fill="#C62717" d="M57.6,0.053L7.2,0.053c-3.977,0,-7.2,3.224,-7.2,7.2l0,38.924l21.668,0c0.317,-1.664,1.775,-2.924,3.532,-2.924l14.4,0c1.757,0,3.215,1.26,3.532,2.924L64.8,46.177L64.8,7.252C64.8,3.276,61.577,0.053,57.6,0.053zM11.88,7.252c0,2.585,-2.094,4.681,-4.679,4.681c-2.584,0,-4.68,-2.095,-4.681,-4.679c0,0,0,-0.001,0,-0.002C2.519,4.668,4.614,2.572,7.198,2.571C9.783,2.57,11.879,4.665,11.88,7.25C11.88,7.25,11.88,7.251,11.88,7.252zM21.917,11.906c-0.939,0,-1.701,-0.762,-1.701,-1.701s0.761,-1.701,1.701,-1.701s1.701,0.761,1.701,1.701S22.857,11.906,21.917,11.906zM26.64,18.053c0,0.795,-0.645,1.44,-1.44,1.44s-1.44,-0.645,-1.44,-1.44c-0.001,-0.795,0.644,-1.44,1.438,-1.441c0.795,-0.001,1.441,0.644,1.441,1.438C26.64,18.051,26.64,18.052,26.64,18.053zM32.4,19.493c-0.795,0,-1.44,-0.645,-1.44,-1.44s0.645,-1.44,1.44,-1.44s1.439,0.645,1.439,1.44S33.195,19.493,32.4,19.493zM32.343,11.906c-0.939,0,-1.701,-0.762,-1.701,-1.701s0.761,-1.701,1.701,-1.701c0.94,0,1.701,0.761,1.701,1.701S33.283,11.906,32.343,11.906zM39.6,19.493c-0.796,0,-1.44,-0.645,-1.44,-1.44s0.645,-1.44,1.44,-1.44s1.44,0.645,1.44,1.44S40.396,19.493,39.6,19.493zM42.768,11.906c-0.939,0,-1.7,-0.762,-1.7,-1.701s0.761,-1.701,1.7,-1.701s1.7,0.761,1.7,1.701S43.708,11.906,42.768,11.906zM57.6,11.933c-2.585,0,-4.681,-2.095,-4.681,-4.68c0,-2.584,2.096,-4.68,4.681,-4.68s4.681,2.095,4.681,4.68C62.281,9.837,60.185,11.933,57.6,11.933z"/>
  <g >
   <title >layer 21</title>
   <g >
    <title >text:GND</title>
    <g transform="matrix(1, 0, 0, 1, 29.8433, 5.8931)">
     <text  fill="#FFFFFF" font-family="'OCRA'" font-size="2.6726">GND</text>
    </g>
   </g>
   <g >
    <title >text:SIG</title>
    <g transform="matrix(1, 0, 0, 1, 39.4194, 5.9653)">
     <text  fill="#FFFFFF" font-family="'OCRA'" font-size="2.6726">SIG</text>
    </g>
   </g>
   <g >
    <title >text:VCC</title>
    <g transform="matrix(1, 0, 0, 1, 19.835, 5.8931)">
     <text  fill="#FFFFFF" font-family="'OCRA'" font-size="2.6726">VCC</text>
    </g>
   </g>
   <g >
    <title >text:Soil Moisture Sensor</title>
    <g transform="matrix(1, 0, 0, 1, 2.8799, 41.4526)">
     <text  fill="#FFFFFF" font-family="'OCRA'" font-size="4.176">Soil Moisture Sensor</text>
    </g>
   </g>
   <g >
    <title >element:FID1</title>
    <g >
     <title >package:FIDUCIAL-1X2</title>
    </g>
   </g>
   <g >
    <title >element:FID2</title>
    <g >
     <title >package:FIDUCIAL-1X2</title>
    </g>
   </g>
   <g >
    <title >element:JP1</title>
    <g >
     <title >package:MOLEX-1X3</title>
     <line  fill="none" stroke-width="0.36" stroke-linecap="round" y2="25.252" x2="21.6" x1="21.6" y1="9.413" stroke="#FFFFFF"/>
     <line  fill="none" stroke-width="0.36" stroke-linecap="round" y2="25.252" x2="43.201" x1="43.201" y1="9.413" stroke="#FFFFFF"/>
     <line  fill="none" stroke-width="0.36" stroke-linecap="round" y2="9.413" x2="21.6" x1="43.201" y1="9.413" stroke="#FFFFFF"/>
     <line  fill="none" stroke-width="0.36" stroke-linecap="round" y2="25.252" x2="39.6" x1="43.201" y1="25.252" stroke="#FFFFFF"/>
     <line  fill="none" stroke-width="0.36" stroke-linecap="round" y2="25.252" x2="25.2" x1="39.6" y1="25.252" stroke="#FFFFFF"/>
     <line  fill="none" stroke-width="0.36" stroke-linecap="round" y2="25.252" x2="21.6" x1="25.2" y1="25.252" stroke="#FFFFFF"/>
     <line  fill="none" stroke-width="0.36" stroke-linecap="round" y2="21.653" x2="25.2" x1="25.2" y1="25.252" stroke="#FFFFFF"/>
     <line  fill="none" stroke-width="0.36" stroke-linecap="round" y2="21.653" x2="39.6" x1="25.2" y1="21.653" stroke="#FFFFFF"/>
     <line  fill="none" stroke-width="0.36" stroke-linecap="round" y2="25.252" x2="39.6" x1="39.6" y1="21.653" stroke="#FFFFFF"/>
    </g>
   </g>
   <g >
    <title >element:JP2</title>
    <g >
     <title >package:SCREWTERMINAL-3.5MM-3_LOCK.007S</title>
     <line  fill="none" stroke-width="0.576" stroke-linecap="round" y2="19.843" x2="15.902" x1="48.784" y1="19.843" stroke="#FFFFFF"/>
     <line  fill="none" stroke-width="0.576" stroke-linecap="round" y2="2.268" x2="15.902" x1="15.902" y1="19.843" stroke="#FFFFFF"/>
     <line  fill="none" stroke-width="0.576" stroke-linecap="round" y2="0" x2="15.902" x1="15.902" y1="2.268" stroke="#FFFFFF"/>
     <line  fill="none" stroke-width="0.576" stroke-linecap="round" y2="0" x2="48.784" x1="15.902" y1="0" stroke="#FFFFFF"/>
     <line  fill="none" stroke-width="0.576" stroke-linecap="round" y2="2.268" x2="48.784" x1="48.784" y1="0" stroke="#FFFFFF"/>
     <line  fill="none" stroke-width="0.576" stroke-linecap="round" y2="19.843" x2="48.784" x1="48.784" y1="2.268" stroke="#FFFFFF"/>
     <line  fill="none" stroke-width="0.576" stroke-linecap="round" y2="2.268" x2="48.784" x1="15.902" y1="2.268" stroke="#FFFFFF"/>
    </g>
   </g>
   <g >
    <title >element:LOGO1</title>
    <g >
     <title >package:SFE_LOGO_NAME_FLAME_.1</title>
    </g>
   </g>
   <g >
    <title >element:LOGO2</title>
    <g >
     <title >package:OSHW-LOGO-S</title>
    </g>
   </g>
   <g >
    <title >element:STANDOFF1</title>
    <g >
     <title >package:STAND-OFF</title>
    </g>
   </g>
   <g >
    <title >element:STANDOFF2</title>
    <g >
     <title >package:STAND-OFF</title>
    </g>
   </g>
   <g >
    <title >element:U$4</title>
    <g >
     <title >package:SFE_LOGO_FLAME_.2</title>
     <g >
      <title >polygon</title>
      <path  fill="none" stroke-width="0.0144" stroke-linecap="round" d="M59.244,19.583l0,0.142M59.244,19.725l0.029,0.142M59.273,19.867l-0.029,0.17M59.244,20.037l-0.027,0.17M59.216,20.207l-0.086,0.142M59.13,20.349l-0.141,0.142M58.99,20.491l-0.199,0.085M58.791,20.576l-0.198,0M58.592,20.576l-0.198,-0.057M58.394,20.519l-0.199,-0.057M58.195,20.462l-0.227,-0.114M57.968,20.349l-0.198,-0.142M57.77,20.207l-0.198,-0.142M57.572,20.065l-0.199,-0.17M57.373,19.896l-0.141,-0.142M57.232,19.753l-0.143,-0.227M57.089,19.527l-0.113,-0.17M56.976,19.357l-0.057,-0.199M56.919,19.158l-0.027,-0.17M56.892,18.988l0.027,-0.17M56.919,18.818l0.057,-0.142M56.976,18.676l0.086,-0.17M57.062,18.506l0.113,-0.142M57.175,18.365l0.227,-0.199M57.402,18.166l0.227,-0.113M57.628,18.053l0.227,-0.057M57.855,17.996l0.256,-0.028M58.111,17.968l0.368,0M58.479,17.968l0.113,0.028M58.592,17.996l0.028,0M58.621,17.996l-0.085,-0.057M58.536,17.939l-0.198,-0.142M58.337,17.797l-0.34,-0.198M57.998,17.599l-0.426,-0.17M57.572,17.429l-0.51,-0.142M57.062,17.287l-0.567,-0.028M56.495,17.259l-0.624,0.142M55.871,17.401l-0.652,0.34M55.218,17.741l-0.48,0.397M54.738,18.138l-0.313,0.454M54.425,18.591l-0.17,0.482M54.255,19.073l0,0.482M54.255,19.555l0.142,0.482M54.397,20.037l0.255,0.51M54.652,20.547l0.369,0.482M55.021,21.029l0.481,0.482M55.502,21.511l0.368,0.425M55.871,21.936l0.199,0.425M56.07,22.361l0,0.397M56.07,22.758l-0.113,0.369M55.957,23.127l-0.256,0.283M55.701,23.41l-0.34,0.227M55.361,23.637l-0.396,0.113M54.964,23.75L54.51,23.75M54.51,23.75l-0.312,-0.085M54.199,23.666l-0.256,-0.085M53.943,23.581l-0.197,-0.17M53.746,23.41l-0.171,-0.17M53.575,23.24l-0.085,-0.17M53.49,23.07l-0.057,-0.198M53.433,22.872l0,-0.198M53.433,22.673l0.057,-0.17M53.49,22.503l0.085,-0.113M53.575,22.39l0.114,-0.113M53.689,22.276l0.141,-0.113M53.83,22.163l0.113,-0.085M53.943,22.078l0.143,-0.057M54.085,22.021l0.113,-0.057M54.199,21.964l0.057,-0.028M54.255,21.936l0.028,-0.028M54.284,21.908l-0.028,0M54.255,21.908l-0.085,-0.028M54.17,21.879l-0.142,-0.057M54.029,21.823l-0.199,-0.028M53.83,21.794l-0.51,0M53.32,21.794l-0.283,0.057M53.037,21.851l-0.313,0.085M52.724,21.936l-0.283,0.114M52.441,22.05l-0.255,0.17M52.186,22.22l-0.228,0.227M51.958,22.446l-0.197,0.255M51.761,22.702l-0.17,0.312M51.591,23.013l-0.114,0.397M51.477,23.41l-0.057,0.454M51.42,23.864l-0.028,0.539M51.392,24.402l0,7.285M51.392,31.688l0.028,-0.057M51.42,31.631l0.114,-0.114M51.535,31.517l0.17,-0.198M51.705,31.319l0.197,-0.255M51.902,31.064l0.256,-0.284M52.158,30.78l0.283,-0.34M52.441,30.44l0.313,-0.34M52.753,30.1l0.34,-0.369M53.093,29.731l0.368,-0.397M53.461,29.334l0.312,-0.368M53.773,28.966l0.313,-0.312M54.085,28.654l0.283,-0.255M54.369,28.399l0.283,-0.198M54.652,28.201l0.313,-0.142M54.964,28.059l0.312,-0.085M55.276,27.974l1.105,0M56.381,27.974l0.681,-0.085M57.062,27.889l0.623,-0.17M57.685,27.719l0.566,-0.255M58.251,27.464l0.539,-0.34M58.791,27.124l0.482,-0.368M59.273,26.755l0.425,-0.454M59.698,26.301l0.397,-0.51M60.095,25.792l0.538,-1.049M60.633,24.743l0.283,-1.021M60.917,23.722l0.057,-0.992M60.973,22.73l-0.142,-0.936M60.832,21.794L60.548,21M60.548,21l-0.369,-0.68M60.179,20.32l-0.481,-0.482M59.698,19.838l-0.454,-0.283M59.244,19.555l0,0.028M51.392,31.675l0.006,0M51.392,31.661l0.014,0M51.392,31.646l0.021,0M51.392,31.632l0.027,0M51.392,31.617l0.042,0M51.392,31.603l0.057,0M51.392,31.588l0.07,0M51.392,31.574l0.085,0M51.392,31.56l0.1,0M51.392,31.545l0.113,0M51.392,31.531l0.129,0M51.392,31.517l0.143,0M51.392,31.502l0.154,0M51.392,31.488l0.167,0M51.392,31.473l0.18,0M51.392,31.459l0.191,0M51.392,31.444l0.204,0M51.392,31.43l0.217,0M51.392,31.416l0.229,0M51.392,31.401l0.241,0M51.392,31.387l0.254,0M51.392,31.373l0.266,0M51.392,31.358l0.278,0M51.392,31.344l0.291,0M51.392,31.329l0.303,0M51.392,31.315l0.314,0M51.392,31.3l0.326,0M51.392,31.286l0.338,0M51.392,31.271l0.349,0M51.392,31.257l0.359,0M51.392,31.243l0.371,0M51.392,31.229l0.383,0M51.392,31.214l0.394,0M51.392,31.2l0.404,0M51.392,31.185l0.416,0M51.392,31.171l0.428,0M51.392,31.156l0.438,0M51.392,31.142l0.449,0M51.392,31.127l0.461,0M51.392,31.113l0.472,0M51.392,31.099l0.482,0M51.392,31.084l0.494,0M51.392,31.07l0.506,0M51.392,31.056l0.518,0M51.392,31.041l0.531,0M51.392,31.027l0.543,0M51.392,31.012l0.557,0M51.392,30.998l0.569,0M51.392,30.983l0.582,0M51.392,30.969l0.596,0M51.392,30.955L52,30.955M51.392,30.94l0.621,0M51.392,30.926l0.635,0M51.392,30.912l0.647,0M51.392,30.897l0.66,0M51.392,30.883l0.674,0M51.392,30.868l0.686,0M51.392,30.854l0.699,0M51.392,30.839l0.713,0M51.392,30.825l0.725,0M51.392,30.811l0.738,0M51.392,30.796l0.751,0M51.392,30.782l0.764,0M51.392,30.768l0.775,0M51.392,30.753l0.788,0M51.392,30.739l0.801,0M51.392,30.724l0.813,0M51.392,30.71l0.824,0M51.392,30.695l0.836,0M51.392,30.681l0.848,0M51.392,30.667l0.859,0M51.392,30.652l0.872,0M51.392,30.638l0.885,0M51.392,30.624l0.896,0M51.392,30.609L52.3,30.609M51.392,30.595l0.92,0M51.392,30.581l0.932,0M51.392,30.566l0.944,0M51.392,30.551l0.956,0M51.392,30.537l0.969,0M51.392,30.523l0.98,0M51.392,30.508l0.992,0M51.392,30.494l1.004,0M51.392,30.479l1.016,0M51.392,30.465l1.028,0M51.392,30.451l1.04,0M51.392,30.436l1.053,0M51.392,30.422l1.066,0M51.392,30.407l1.079,0M51.392,30.393l1.092,0M51.392,30.378l1.105,0M51.392,30.364l1.119,0M51.392,30.35l1.132,0M51.392,30.335l1.145,0M51.392,30.321l1.158,0M51.392,30.307l1.172,0M51.392,30.292l1.185,0M51.392,30.278l1.197,0M51.392,30.263l1.211,0M51.392,30.249l1.225,0M51.392,30.235l1.237,0M51.392,30.22l1.25,0M51.392,30.206l1.264,0M51.392,30.191l1.277,0M51.392,30.177l1.29,0M51.392,30.163l1.303,0M51.392,30.148l1.316,0M51.392,30.134l1.33,0M51.392,30.119l1.343,0M51.392,30.105l1.355,0M51.392,30.09l1.369,0M51.392,30.076l1.383,0M51.392,30.062l1.396,0M51.392,30.047l1.409,0M51.392,30.033l1.423,0M51.392,30.019l1.436,0M51.392,30.004l1.449,0M51.392,29.99l1.463,0M51.392,29.975l1.476,0M51.392,29.961l1.489,0M51.392,29.946l1.502,0M51.392,29.932l1.516,0M51.392,29.917l1.529,0M51.392,29.903l1.543,0M51.392,29.889l1.556,0M51.392,29.875l1.568,0M51.392,29.86l1.582,0M51.392,29.846l1.596,0M51.392,29.832l1.609,0M51.392,29.817l1.622,0M51.392,29.802l1.635,0M51.392,29.788l1.648,0M51.392,29.774l1.662,0M51.392,29.759l1.676,0M51.392,29.745l1.688,0M51.392,29.73l1.701,0M51.392,29.716l1.715,0M51.392,29.702l1.729,0M51.392,29.688l1.742,0M51.392,29.673l1.756,0M51.392,29.659l1.769,0M51.392,29.644l1.782,0M51.392,29.63l1.795,0M51.392,29.615l1.809,0M51.392,29.601l1.822,0M51.392,29.586l1.836,0M51.392,29.572l1.85,0M51.392,29.558l1.862,0M51.392,29.543l1.875,0M51.392,29.529l1.889,0M51.392,29.514l1.902,0M51.392,29.5l1.916,0M51.392,29.486l1.93,0M51.392,29.471l1.942,0M51.392,29.457l1.956,0M51.392,29.442l1.969,0M51.392,29.428l1.982,0M51.392,29.414l1.996,0M51.392,29.399l2.01,0M51.392,29.385l2.023,0M51.392,29.371l2.036,0M51.392,29.356l2.05,0M51.392,29.342l2.063,0M51.392,29.327l2.076,0M51.392,29.313l2.088,0M51.392,29.298l2.1,0M51.392,29.284l2.112,0M51.392,29.27l2.125,0M51.392,29.255l2.137,0M51.392,29.241l2.148,0M51.392,29.226l2.161,0M51.392,29.212l2.174,0M51.392,29.198l2.186,0M51.392,29.183l2.197,0M51.392,29.168l2.21,0M51.392,29.154l2.223,0M51.392,29.14l2.234,0M51.392,29.125l2.246,0M51.392,29.111l2.258,0M51.392,29.097l2.271,0M51.392,29.083l2.283,0M51.392,29.068l2.295,0M51.392,29.054l2.307,0M51.392,29.039l2.319,0M51.392,29.025l2.332,0M51.392,29.01l2.344,0M51.392,28.996l2.355,0M51.392,28.981l2.368,0M51.392,28.967l2.381,0M51.392,28.953l2.395,0M51.392,28.938l2.409,0M51.392,28.924l2.424,0M51.392,28.91l2.438,0M51.392,28.895l2.452,0M51.392,28.88l2.467,0M51.392,28.866l2.48,0M51.392,28.852l2.496,0M51.392,28.837l2.51,0M51.392,28.823l2.524,0M51.392,28.809l2.539,0M51.392,28.794l2.553,0M51.392,28.78l2.567,0M51.392,28.765l2.582,0M51.392,28.751l2.596,0M51.392,28.737l2.611,0M51.392,28.722l2.625,0M51.392,28.708l2.64,0M51.392,28.693l2.654,0M51.392,28.679l2.668,0M51.392,28.665l2.683,0M51.392,28.65l2.697,0M51.392,28.636l2.713,0M51.392,28.622l2.729,0M51.392,28.607l2.746,0M51.392,28.593l2.762,0M51.392,28.578l2.777,0M51.392,28.564l2.793,0M51.392,28.549l2.81,0M51.392,28.535l2.826,0M51.392,28.521l2.842,0M51.392,28.506l2.857,0M51.392,28.492l2.873,0M51.392,28.478l2.89,0M51.392,28.463l2.906,0M51.392,28.449l2.922,0M51.392,28.434l2.938,0M51.392,28.42l2.953,0M51.392,28.405l2.97,0M51.392,28.391l2.988,0M51.392,28.376l3.009,0M51.392,28.362l3.029,0M51.392,28.348l3.05,0M51.392,28.333l3.07,0M51.392,28.319l3.092,0M51.392,28.305l3.111,0M51.392,28.29l3.133,0M51.392,28.276l3.152,0M51.392,28.261l3.174,0M51.392,28.247l3.193,0M51.392,28.232l3.215,0M51.392,28.218l3.235,0M51.392,28.204l3.256,0M51.392,28.189l3.285,0M51.392,28.175l3.316,0M51.392,28.161l3.349,0M51.392,28.146l3.381,0M51.392,28.132l3.412,0M51.392,28.117l3.443,0M51.392,28.103l3.476,0M51.392,28.088L54.9,28.088M51.392,28.074l3.539,0M51.392,28.06l3.57,0M51.392,28.045l3.622,0M51.392,28.031l3.676,0M51.392,28.017l3.729,0M51.392,28.002l3.781,0M51.392,27.988l3.834,0M51.392,27.973l4.995,0M51.392,27.959l5.11,0M51.392,27.944l5.226,0M51.392,27.93l5.341,0M51.392,27.916l5.456,0M51.392,27.901l5.571,0M51.392,27.887l5.678,0M51.392,27.873l5.73,0M51.392,27.858l5.783,0M51.392,27.844l5.836,0M51.392,27.829l5.889,0M51.392,27.815l5.941,0M51.392,27.8l5.994,0M51.392,27.786l6.047,0M51.392,27.771l6.1,0M51.392,27.757l6.152,0M51.392,27.743l6.205,0M51.392,27.729l6.258,0M51.392,27.714l6.305,0M51.392,27.7l6.336,0M51.392,27.685l6.368,0M51.392,27.671l6.4,0M51.392,27.656l6.432,0M51.392,27.642l6.464,0M51.392,27.627l6.496,0M51.392,27.613l6.527,0M51.392,27.599l6.561,0M51.392,27.584l6.592,0M51.392,27.57l6.624,0M51.392,27.556l6.656,0M51.392,27.541l6.688,0M51.392,27.527l6.721,0M51.392,27.512l6.752,0M51.392,27.498l6.784,0M51.392,27.483l6.816,0M51.392,27.469l6.848,0M51.392,27.455l6.875,0M51.392,27.44l6.896,0M51.392,27.426l6.92,0M51.392,27.412l6.943,0M51.392,27.397l6.965,0M51.392,27.383l6.988,0M51.392,27.368l7.012,0M51.392,27.354l7.033,0M51.392,27.339l7.057,0M51.392,27.325l7.08,0M51.392,27.311l7.103,0M51.392,27.296l7.125,0M51.392,27.282l7.148,0M51.392,27.268l7.171,0M51.392,27.253l7.193,0M51.392,27.239l7.217,0M51.392,27.224l7.239,0M51.392,27.21l7.262,0M51.392,27.195l7.285,0M51.392,27.181L58.7,27.181M51.392,27.167l7.33,0M51.392,27.152l7.354,0M51.392,27.138l7.376,0M51.392,27.124l7.398,0M51.392,27.109l7.418,0M51.392,27.095l7.437,0M51.392,27.08l7.455,0M51.392,27.066l7.475,0M51.392,27.051l7.493,0M51.392,27.037l7.512,0M51.392,27.022l7.531,0M51.392,27.008l7.549,0M51.392,26.994l7.568,0M51.392,26.979l7.588,0M51.392,26.965l7.605,0M51.392,26.951l7.625,0M51.392,26.936l7.644,0M51.392,26.922l7.662,0M51.392,26.907l7.682,0M51.392,26.893l7.7,0M51.392,26.878l7.719,0M51.392,26.864l7.738,0M51.392,26.85l7.756,0M51.392,26.835l7.775,0M51.392,26.821l7.795,0M51.392,26.807l7.813,0M51.392,26.792l7.832,0M51.392,26.778l7.851,0M51.392,26.763l7.869,0M51.392,26.749l7.887,0M51.392,26.734l7.9,0M51.392,26.72l7.913,0M51.392,26.706l7.927,0M51.392,26.691l7.94,0M51.392,26.677l7.953,0M51.392,26.663l7.967,0M51.392,26.648l7.98,0M51.392,26.634l7.994,0M51.392,26.619L59.4,26.619M51.392,26.605l8.021,0M51.392,26.59l8.035,0M51.392,26.576l8.049,0M51.392,26.562l8.063,0M51.392,26.547l8.075,0M51.392,26.533l8.089,0M51.392,26.519l8.102,0M51.392,26.504l8.115,0M51.392,26.49l8.129,0M51.392,26.475l8.143,0M51.392,26.461l8.156,0M51.392,26.446l8.17,0M51.392,26.432l8.184,0M51.392,26.417l8.197,0M51.392,26.403l8.211,0M51.392,26.389l8.224,0M51.392,26.375l8.237,0M51.392,26.36l8.251,0M51.392,26.346l8.264,0M51.392,26.331l8.277,0M51.392,26.317l8.291,0M51.392,26.302l8.305,0M51.392,26.288l8.316,0M51.392,26.273l8.327,0M51.392,26.259l8.338,0M51.392,26.245l8.35,0M51.392,26.23l8.361,0M51.392,26.216l8.372,0M51.392,26.202l8.383,0M51.392,26.187l8.395,0M51.392,26.173l8.406,0M51.392,26.158l8.417,0M51.392,26.144l8.428,0M51.392,26.129l8.439,0M51.392,26.115l8.451,0M51.392,26.101l8.462,0M51.392,26.086l8.473,0M51.392,26.072l8.484,0M51.392,26.058l8.496,0M51.392,26.043l8.506,0M51.392,26.029l8.518,0M51.392,26.014l8.529,0M51.392,26l8.54,0M51.392,25.985l8.551,0M51.392,25.971l8.563,0M51.392,25.957l8.574,0M51.392,25.942l8.585,0M51.392,25.928l8.596,0M51.392,25.914L60,25.914M51.392,25.899l8.619,0M51.392,25.885l8.63,0M51.392,25.87l8.641,0M51.392,25.856l8.652,0M51.392,25.841l8.664,0M51.392,25.827l8.675,0M51.392,25.813l8.686,0M51.392,25.798l8.697,0M51.392,25.784l8.706,0M51.392,25.77l8.714,0M51.392,25.755l8.721,0M51.392,25.741l8.729,0M51.392,25.726l8.736,0M51.392,25.712l8.743,0M51.392,25.697l8.75,0M51.392,25.683l8.758,0M51.392,25.668l8.766,0M51.392,25.654l8.773,0M51.392,25.64l8.78,0M51.392,25.625l8.787,0M51.392,25.611l8.795,0M51.392,25.597l8.803,0M51.392,25.582l8.811,0M51.392,25.568l8.817,0M51.392,25.553l8.824,0M51.392,25.539l8.832,0M51.392,25.524l8.84,0M51.392,25.51l8.847,0M51.392,25.496l8.854,0M51.392,25.481l8.861,0M51.392,25.467l8.869,0M51.392,25.453l8.877,0M51.392,25.438l8.884,0M51.392,25.424l8.891,0M51.392,25.41l8.898,0M51.392,25.395l8.906,0M51.392,25.38l8.914,0M51.392,25.366l8.921,0M51.392,25.352l8.928,0M51.392,25.337l8.936,0M51.392,25.323l8.943,0M51.392,25.309l8.95,0M51.392,25.294l8.958,0M51.392,25.28l8.965,0M51.392,25.265l8.973,0M51.392,25.251l8.98,0M51.392,25.237l8.987,0M51.392,25.222l8.994,0M51.392,25.208l9.002,0M51.392,25.193l9.01,0M51.392,25.179l9.018,0M51.392,25.165l9.024,0M51.392,25.15l9.031,0M51.392,25.136l9.039,0M51.392,25.121l9.047,0M51.392,25.107l9.054,0M51.392,25.092l9.062,0M51.392,25.078l9.068,0M51.392,25.064l9.076,0M51.392,25.049l9.084,0M51.392,25.035l9.091,0M51.392,25.021l9.098,0M51.392,25.006l9.105,0M51.392,24.992l9.113,0M51.392,24.977l9.121,0M51.392,24.963l9.128,0M51.392,24.949l9.135,0M51.392,24.934l9.143,0M51.392,24.919l9.15,0M51.392,24.905l9.158,0M51.392,24.891l9.165,0M51.392,24.876l9.172,0M51.392,24.862l9.18,0M51.392,24.848l9.188,0M51.392,24.833l9.194,0M51.392,24.819l9.201,0M51.392,24.804l9.209,0M51.392,24.79l9.217,0M51.392,24.775l9.225,0M51.392,24.761l9.231,0M51.392,24.747l9.238,0M51.392,24.732l9.244,0M51.392,24.718l9.248,0M51.392,24.704l9.252,0M51.392,24.689l9.256,0M51.392,24.675l9.26,0M51.392,24.661l9.264,0M51.392,24.646l9.268,0M51.392,24.631l9.271,0M51.392,24.617l9.275,0M51.392,24.603l9.279,0M51.392,24.588l9.283,0M51.392,24.574l9.288,0M51.392,24.56l9.292,0M51.392,24.545l9.296,0M51.392,24.531l9.3,0M51.392,24.517l9.304,0M51.392,24.502l9.309,0M51.392,24.488l9.313,0M51.392,24.473l9.316,0M51.392,24.459l9.32,0M51.392,24.444l9.324,0M51.392,24.43l9.328,0M51.392,24.416l9.332,0M51.392,24.401l9.336,0M51.393,24.387l9.339,0M51.394,24.373l9.342,0M51.394,24.358l9.346,0M51.396,24.344l9.348,0M51.396,24.329l9.352,0M51.397,24.315l9.354,0M51.398,24.3l9.357,0M51.398,24.286l9.361,0M51.399,24.271l9.365,0M51.4,24.257l9.368,0M51.4,24.243l9.372,0M51.402,24.228l9.374,0M51.402,24.214l9.378,0M51.403,24.2l9.382,0M51.404,24.185l9.385,0M51.404,24.171l9.389,0M51.406,24.156l9.391,0M51.406,24.142L60.8,24.142M51.407,24.127l9.397,0M51.408,24.113l9.4,0M51.408,24.099l9.404,0M51.41,24.084l9.406,0M51.41,24.07l9.41,0M51.411,24.056l9.413,0M51.412,24.041l9.416,0M51.412,24.027l9.42,0M51.413,24.012l9.423,0M51.414,23.998l9.426,0M51.414,23.983l9.43,0M51.416,23.969l9.433,0M51.416,23.955l9.437,0M51.417,23.94l9.439,0M51.417,23.926l9.442,0M51.417,23.912l9.446,0M51.419,23.897l9.449,0M51.419,23.883l9.453,0M51.42,23.868l9.456,0M51.421,23.854l9.459,0M51.423,23.839l9.461,0M51.425,23.825l9.463,0M51.427,23.811l9.465,0M51.429,23.796l9.467,0M51.431,23.782L60.9,23.782M51.433,23.768l9.471,0M51.435,23.753l9.473,0M51.437,23.739l3.03,0M55.005,23.739l5.906,0M51.438,23.724l2.976,0M55.056,23.724l5.859,0M51.44,23.709l2.921,0M55.106,23.709l5.812,0M51.442,23.695l2.866,0M55.156,23.695l5.762,0M51.443,23.681l2.813,0M55.207,23.681l5.713,0M51.445,23.667l2.758,0M55.257,23.667l5.662,0M51.447,23.652l2.713,0M55.308,23.652l5.612,0M51.449,23.638l2.667,0M55.358,23.638l5.563,0M51.451,23.624l2.622,0M55.38,23.624l5.542,0M51.453,23.609l2.576,0M55.403,23.609l5.521,0M51.455,23.594l2.531,0M55.424,23.594l5.499,0M51.457,23.58l2.486,0M55.446,23.58l5.479,0M51.458,23.566l2.468,0M55.468,23.566l5.457,0M51.459,23.551l2.45,0M55.49,23.551l5.437,0M51.461,23.537l2.431,0M55.511,23.537l5.416,0M51.463,23.522l2.413,0M55.533,23.522l5.395,0M51.464,23.508l2.395,0M55.554,23.508l5.375,0M51.466,23.494l2.376,0M55.576,23.494l5.354,0M51.468,23.479l2.357,0M55.597,23.479l5.334,0M51.47,23.465l2.338,0M55.619,23.465l5.313,0M51.472,23.451l2.32,0M55.64,23.451l5.292,0M51.474,23.436l2.301,0M55.662,23.436l5.271,0M51.476,23.422l2.282,0M55.683,23.422l5.25,0M51.478,23.407l2.264,0M55.704,23.407l5.231,0M51.482,23.393l2.246,0M55.716,23.393l5.219,0M51.486,23.378l2.228,0M55.73,23.378l5.207,0M51.49,23.364l2.209,0M55.742,23.364l5.195,0M51.495,23.35l2.19,0M55.755,23.35l5.183,0M51.499,23.335l2.171,0M55.768,23.335l5.171,0M51.503,23.321l2.152,0M55.781,23.321l5.158,0M51.507,23.307l2.134,0M55.794,23.307l5.146,0M51.511,23.292l2.115,0M55.807,23.292l5.134,0M51.515,23.278l2.098,0M55.82,23.278l5.122,0M51.519,23.263l2.079,0M55.833,23.263l5.109,0M51.523,23.249l2.061,0M55.846,23.249l5.097,0M51.527,23.234l2.045,0M55.859,23.234l5.086,0M51.532,23.22l2.033,0M55.873,23.22l5.072,0M51.536,23.206l2.022,0M55.884,23.206l5.063,0M51.541,23.191l2.01,0M55.898,23.191l5.049,0M51.544,23.177l1.999,0M55.911,23.177l5.037,0M51.548,23.163l1.988,0M55.923,23.163l5.025,0M51.552,23.148l1.977,0M55.937,23.148l5.012,0M51.556,23.134l1.965,0M55.95,23.134l5.001,0M51.56,23.119l1.955,0M55.958,23.119l4.992,0M51.564,23.105l1.943,0M55.962,23.105l4.989,0M51.569,23.09L53.5,23.09M55.967,23.09l4.985,0M51.573,23.076l1.92,0M55.972,23.076l4.981,0M51.577,23.062l1.911,0M55.976,23.062l4.979,0M51.582,23.047l1.902,0M55.98,23.047l4.975,0M51.585,23.033l1.895,0M55.985,23.033l4.972,0M51.589,23.019l1.886,0M55.99,23.019l4.967,0M51.595,23.004l1.876,0M55.994,23.004l4.964,0M51.603,22.99l1.863,0M55.998,22.99l4.961,0M51.611,22.975l1.852,0M56.002,22.975l4.957,0M51.619,22.961l1.84,0M56.007,22.961l4.953,0M51.626,22.946l1.828,0M56.011,22.946l4.949,0M51.634,22.932l1.816,0M56.016,22.932l4.946,0M51.643,22.917l1.804,0M56.021,22.917l4.941,0M51.651,22.903l1.792,0M56.025,22.903l4.938,0M51.659,22.889l1.779,0M56.029,22.889l4.936,0M51.667,22.875l1.768,0M56.034,22.875l4.931,0M51.674,22.86l1.759,0M56.039,22.86l4.928,0M51.682,22.846l1.751,0M56.042,22.846l4.924,0M51.69,22.831l1.743,0M56.046,22.831l4.921,0M51.698,22.817l1.735,0M56.051,22.817l4.917,0M51.706,22.802l1.728,0M56.056,22.802l4.913,0M51.713,22.788l1.72,0M56.06,22.788l4.91,0M51.721,22.773l1.712,0M56.064,22.773l4.906,0M51.73,22.759l1.703,0M56.069,22.759l4.903,0M51.738,22.745l1.695,0M56.07,22.745l4.902,0M51.746,22.73l1.688,0M56.07,22.73l4.903,0M51.753,22.716l1.68,0M56.07,22.716l4.901,0M51.761,22.702l1.672,0M56.07,22.702l4.899,0M51.772,22.687l1.661,0M56.07,22.687l4.896,0M51.783,22.673l1.65,0M56.07,22.673l4.895,0M51.794,22.658l1.644,0M56.07,22.658l4.893,0M51.806,22.644l1.637,0M56.07,22.644l4.891,0M51.817,22.629l1.631,0M56.07,22.629l4.889,0M51.828,22.615l1.625,0M56.07,22.615l4.887,0M51.839,22.601l1.618,0M56.07,22.601l4.884,0M51.851,22.586l1.611,0M56.07,22.586l4.882,0M51.862,22.572l1.604,0M56.07,22.572l4.879,0M51.873,22.558l1.6,0M56.07,22.558l4.877,0M51.884,22.543l1.592,0M56.07,22.543l4.875,0M51.895,22.529l1.587,0M56.07,22.529l4.873,0M51.906,22.514l1.58,0M56.07,22.514l4.871,0M51.917,22.5l1.574,0M56.07,22.5l4.869,0M51.929,22.485l1.574,0M56.07,22.485l4.867,0M51.94,22.471l1.573,0M56.07,22.471l4.864,0M51.951,22.457l1.574,0M56.07,22.457l4.861,0M51.963,22.442l1.572,0M56.07,22.442l4.859,0M51.978,22.428l1.568,0M56.07,22.428l4.857,0M51.992,22.414l1.565,0M56.07,22.414l4.855,0M52.006,22.399l1.562,0M56.07,22.399l4.854,0M52.021,22.385l1.559,0M56.07,22.385l4.852,0M52.035,22.37l1.56,0M56.07,22.37l4.85,0M52.05,22.356l1.559,0M56.067,22.356l4.85,0M52.064,22.341l1.559,0M56.06,22.341l4.854,0M52.079,22.327l1.56,0M56.053,22.327l4.858,0M52.093,22.313l1.559,0M56.046,22.313l4.863,0M52.107,22.298l1.56,0M56.041,22.298l4.867,0M52.122,22.284l1.56,0M56.033,22.284l4.873,0M52.136,22.27l1.561,0M56.027,22.27l4.877,0M52.15,22.255l1.564,0M56.02,22.255l4.882,0M52.166,22.241l1.567,0M56.013,22.241L60.9,22.241M52.179,22.226l1.572,0M56.006,22.226l4.891,0M52.198,22.212l1.571,0M56,22.212l4.896,0M52.219,22.197l1.567,0M55.993,22.197l4.899,0M52.241,22.183l1.564,0M55.986,22.183l4.904,0M52.263,22.168l1.56,0M55.98,22.168l4.908,0M52.285,22.154l1.557,0M55.972,22.154l4.914,0M52.306,22.14l1.555,0M55.966,22.14l4.918,0M52.328,22.125l1.553,0M55.959,22.125l4.923,0M52.349,22.111L53.9,22.111M55.953,22.111l4.927,0M52.371,22.097l1.548,0M55.946,22.097l4.932,0M52.392,22.082l1.545,0M55.939,22.082l4.936,0M52.414,22.068l1.555,0M55.933,22.068l4.939,0M52.435,22.053l1.57,0M55.925,22.053l4.945,0M52.468,22.039l1.572,0M55.919,22.039l4.949,0M52.503,22.024l1.573,0M55.912,22.024l4.955,0M52.54,22.01l1.567,0M55.906,22.01l4.959,0M52.576,21.996l1.561,0M55.898,21.996l4.965,0M52.612,21.981l1.554,0M55.892,21.981l4.968,0M52.648,21.967l1.546,0M55.885,21.967l4.973,0M52.683,21.953l1.539,0M55.878,21.953l4.977,0M52.72,21.938l1.531,0M55.873,21.938l4.98,0M52.77,21.924l1.497,0M55.86,21.924l4.991,0M52.823,21.909l1.46,0M55.847,21.909l5.002,0M52.876,21.895l1.34,0M55.835,21.895l5.012,0M52.929,21.88l1.244,0M55.823,21.88l5.022,0M52.982,21.866l1.154,0M55.81,21.866l5.032,0M53.035,21.852l1.066,0M55.798,21.852l5.042,0M53.105,21.837l0.96,0M55.785,21.837l5.053,0M53.177,21.823l0.852,0M55.773,21.823l5.063,0M53.25,21.809l0.679,0M55.76,21.809l5.073,0M55.748,21.794l5.084,0M55.736,21.78l5.09,0M55.722,21.765l5.1,0M55.71,21.751l5.105,0M55.698,21.736l5.113,0M55.685,21.722l5.121,0M55.673,21.708L60.8,21.708M55.66,21.693l5.136,0M55.648,21.679l5.143,0M55.635,21.665l5.149,0M55.623,21.65l5.158,0M55.611,21.636l5.164,0M55.598,21.621l5.172,0M55.585,21.607l5.18,0M55.574,21.592l5.186,0M55.56,21.578l5.194,0M55.548,21.563l5.201,0M55.536,21.549l5.208,0M55.523,21.535l5.216,0M55.511,21.521l5.223,0M55.498,21.506l5.23,0M55.483,21.492l5.241,0M55.468,21.477l5.25,0M55.455,21.463l5.259,0M55.44,21.448l5.269,0M55.425,21.434l5.277,0M55.412,21.419l5.286,0M55.396,21.405l5.297,0M55.382,21.391l5.305,0M55.368,21.376l5.314,0M55.353,21.362l5.324,0M55.339,21.348l5.332,0M55.325,21.333l5.343,0M55.31,21.319l5.352,0M55.296,21.304l5.36,0M55.281,21.29l5.371,0M55.267,21.275l5.379,0M55.252,21.261l5.389,0M55.238,21.247l5.398,0M55.224,21.232l5.406,0M55.209,21.218l5.416,0M55.195,21.204l5.426,0M55.181,21.189l5.434,0M55.166,21.175l5.445,0M55.152,21.161l5.453,0M55.137,21.146L60.6,21.146M55.123,21.131l5.473,0M55.109,21.117l5.48,0M55.094,21.103l5.49,0M55.08,21.088l5.5,0M55.066,21.074l5.508,0M55.05,21.06l5.519,0M55.037,21.045l5.527,0M55.022,21.031l5.537,0M55.011,21.016l5.543,0M55,21.002l5.549,0M54.989,20.987l5.552,0M54.978,20.973l5.555,0M54.966,20.958l5.559,0M54.956,20.944l5.562,0M54.945,20.93l5.564,0M54.933,20.916l5.568,0M54.922,20.901l5.571,0M54.912,20.887l5.574,0M54.901,20.873l5.577,0M54.89,20.858l5.58,0M54.878,20.843l5.584,0M54.868,20.829l5.587,0M54.857,20.815l5.59,0M54.845,20.8l5.594,0M54.834,20.786l5.597,0M54.824,20.771l5.6,0M54.812,20.757l5.604,0M54.801,20.743l5.606,0M54.791,20.728L60.4,20.728M54.779,20.714l5.613,0M54.769,20.699l5.615,0M54.757,20.685l5.619,0M54.747,20.67l5.622,0M54.736,20.656l5.625,0M54.724,20.642l5.629,0M54.713,20.627l5.632,0M54.703,20.613l5.635,0M54.691,20.599l5.639,0M54.68,20.584l5.642,0M54.669,20.57l3.902,0M58.804,20.57l1.51,0M54.658,20.555l3.863,0M58.837,20.555l1.469,0M54.649,20.541l3.822,0M58.871,20.541l1.429,0M54.642,20.527l3.779,0M58.905,20.527l1.387,0M54.634,20.512l3.736,0M58.939,20.512l1.345,0M54.627,20.498l3.692,0M58.972,20.498l1.304,0M54.621,20.483l3.648,0M58.996,20.483l1.272,0M54.613,20.469l3.606,0M59.011,20.469l1.249,0M54.606,20.455l3.574,0M59.025,20.455l1.228,0M54.599,20.44l3.553,0M59.04,20.44l1.205,0M54.591,20.426l3.531,0M59.054,20.426l1.183,0M54.583,20.412l3.51,0M59.068,20.412l1.161,0M54.578,20.397l3.487,0M59.083,20.397l1.139,0M54.57,20.383l3.467,0M59.097,20.383l1.116,0M54.562,20.368l3.445,0M59.111,20.368l1.095,0M54.555,20.354l3.423,0M59.126,20.354l1.071,0M54.548,20.339l3.407,0M59.136,20.339l1.054,0M54.541,20.325l3.395,0M59.145,20.325l1.037,0M54.534,20.311l3.382,0M59.154,20.311l1.016,0M54.527,20.296l3.368,0M59.163,20.296l0.993,0M54.519,20.282l3.355,0M59.171,20.282l0.97,0M54.512,20.268l3.343,0M59.179,20.268l0.947,0M54.505,20.253l3.329,0M59.189,20.253l0.924,0M54.498,20.239l3.316,0M59.197,20.239l0.9,0M54.49,20.224l3.305,0M59.206,20.224l0.878,0M54.484,20.209l3.29,0M59.214,20.209l0.854,0M54.476,20.195l3.277,0M59.218,20.195l0.836,0M54.468,20.181l3.266,0M59.22,20.181l0.82,0M54.462,20.167l3.251,0M59.222,20.167l0.804,0M54.455,20.152l3.238,0M59.225,20.152l0.786,0M54.447,20.138l3.227,0M59.228,20.138l0.77,0M54.44,20.124l3.213,0M59.23,20.124l0.752,0M54.433,20.109l3.199,0M59.232,20.109l0.736,0M54.425,20.094l3.188,0M59.234,20.094l0.72,0M54.418,20.08l3.174,0M59.237,20.08l0.702,0M54.412,20.066l3.16,0M59.24,20.066l0.686,0M54.404,20.051l3.151,0M59.242,20.051l0.668,0M54.397,20.037l3.142,0M59.244,20.037l0.652,0M54.392,20.022l3.13,0M59.247,20.022l0.635,0M54.388,20.008l3.117,0M59.25,20.008l0.617,0M54.384,19.994l3.104,0M59.251,19.994l0.602,0M54.38,19.979l3.091,0M59.253,19.979l0.585,0M54.375,19.965l3.079,0M59.256,19.965l0.567,0M54.372,19.951l3.065,0M59.259,19.951l0.551,0M54.367,19.936l3.055,0M59.261,19.936l0.534,0M54.363,19.921l3.041,0M59.263,19.921l0.518,0M54.359,19.907l3.028,0M59.265,19.907l0.502,0M54.355,19.893l3.016,0M59.268,19.893l0.483,0M54.35,19.878l3.007,0M59.271,19.878l0.467,0M54.346,19.864l2.996,0M59.272,19.864l0.451,0M54.341,19.85l2.986,0M59.269,19.85l0.439,0M54.337,19.835l2.977,0M59.266,19.835l0.427,0M54.333,19.821l2.965,0M59.263,19.821l0.406,0M54.33,19.806l2.955,0M59.26,19.806l0.386,0M54.325,19.792l2.945,0M59.257,19.792l0.365,0M54.321,19.778l2.935,0M59.255,19.778L59.6,19.778M54.316,19.763l2.926,0M59.251,19.763l0.326,0M54.312,19.749l2.916,0M59.25,19.749l0.305,0M54.308,19.734l2.912,0M59.246,19.734l0.285,0M54.304,19.72l2.906,0M59.244,19.72l0.264,0M54.299,19.706l2.902,0M59.244,19.706l0.241,0M54.295,19.691l2.897,0M59.244,19.691l0.219,0M54.291,19.677l2.893,0M59.244,19.677l0.195,0M54.287,19.663l2.889,0M59.244,19.663l0.172,0M54.283,19.648l2.883,0M59.244,19.648l0.148,0M54.279,19.633l2.878,0M59.244,19.633l0.126,0M54.274,19.619l2.874,0M59.244,19.619l0.104,0M54.27,19.604l2.868,0M59.244,19.604l0.08,0M54.265,19.59l2.865,0M59.244,19.59L59.3,19.59M54.261,19.576l2.859,0M59.244,19.576l0.033,0M54.257,19.562l2.854,0M59.244,19.562l0.011,0M54.255,19.547l2.848,0M54.255,19.533l2.838,0M54.255,19.518l2.829,0M54.255,19.504l2.819,0M54.255,19.49l2.81,0M54.255,19.475l2.801,0M54.255,19.46l2.791,0M54.255,19.446l2.781,0M54.255,19.432l2.771,0M54.255,19.417l2.762,0M54.255,19.403l2.752,0M54.255,19.389l2.742,0M54.255,19.375l2.732,0M54.255,19.36l2.723,0M54.255,19.346l2.718,0M54.255,19.331l2.714,0M54.255,19.317l2.709,0M54.255,19.302l2.705,0M54.255,19.288l2.701,0M54.255,19.273l2.697,0M54.255,19.259l2.693,0M54.255,19.245l2.689,0M54.255,19.23l2.686,0M54.255,19.216l2.682,0M54.255,19.202l2.677,0M54.255,19.187l2.673,0M54.255,19.173l2.668,0M54.255,19.158l2.664,0M54.255,19.144l2.662,0M54.255,19.129l2.66,0M54.255,19.115l2.657,0M54.255,19.101l2.654,0M54.255,19.086l2.652,0M54.255,19.072l2.65,0M54.261,19.058l2.642,0M54.266,19.043L56.9,19.043M54.271,19.029l2.627,0M54.276,19.014l2.62,0M54.281,19l2.613,0M54.287,18.985l2.605,0M54.292,18.971l2.603,0M54.296,18.957l2.6,0M54.301,18.942l2.598,0M54.306,18.928l2.596,0M54.312,18.914l2.592,0M54.317,18.899l2.589,0M54.322,18.885l2.587,0M54.327,18.87l2.585,0M54.332,18.856l2.582,0M54.337,18.841l2.578,0M54.342,18.827l2.576,0M54.347,18.813l2.574,0M54.352,18.798l2.575,0M54.357,18.784l2.576,0M54.363,18.77l2.576,0M54.368,18.755l2.577,0M54.373,18.741l2.578,0M54.377,18.726l2.579,0M54.382,18.711l2.58,0M54.388,18.697l2.58,0M54.393,18.683l2.581,0M54.398,18.668l2.582,0M54.404,18.654l2.584,0M54.408,18.64l2.587,0M54.414,18.625l2.588,0M54.418,18.611l2.591,0M54.423,18.597l2.594,0M54.431,18.582l2.592,0M54.441,18.568l2.59,0M54.451,18.553l2.588,0M54.461,18.539l2.584,0M54.471,18.524l2.581,0M54.481,18.51l2.579,0M54.492,18.496l2.578,0M54.501,18.481l2.58,0M54.511,18.467l2.582,0M54.521,18.453l2.584,0M54.531,18.438l2.586,0M54.541,18.423l2.587,0M54.55,18.409l2.589,0M54.56,18.395l2.59,0M54.57,18.38l2.592,0M54.58,18.366l2.594,0M54.589,18.352l2.6,0M54.6,18.337l2.606,0M54.61,18.323l2.612,0M54.62,18.309l2.619,0M54.63,18.294l2.625,0M54.64,18.28l2.632,0M54.65,18.265l2.639,0M54.66,18.251l2.645,0M54.669,18.236l2.652,0M54.679,18.222l2.658,0M54.689,18.208l2.665,0M54.699,18.193l2.672,0M54.708,18.179l2.679,0M54.718,18.165l2.688,0M54.728,18.15l2.706,0M54.74,18.136l2.723,0M54.757,18.121l2.734,0M54.775,18.107l2.746,0M54.792,18.092l2.757,0M54.81,18.078l2.768,0M54.828,18.063l2.779,0M54.845,18.049l2.797,0M54.863,18.035l2.838,0M54.88,18.021l2.877,0M54.897,18.006l2.919,0M54.915,17.992l2.981,0M58.574,17.992l0.04,0M54.932,17.977l3.093,0M58.517,17.977l0.075,0M54.95,17.963l3.621,0M54.967,17.948l3.582,0M54.984,17.934l3.544,0M55.001,17.919l3.506,0M55.019,17.905l3.469,0M55.037,17.891l3.431,0M55.054,17.876l3.393,0M55.072,17.862l3.355,0M55.089,17.848l3.317,0M55.107,17.833l3.279,0M55.125,17.819l3.242,0M55.142,17.804l3.205,0M55.16,17.79l3.164,0M55.177,17.775l3.122,0M55.195,17.761l3.08,0M55.212,17.747l3.037,0M55.236,17.732l2.989,0M55.263,17.718l2.938,0M55.291,17.704l2.885,0M55.318,17.689l2.833,0M55.345,17.675l2.781,0M55.374,17.66l2.728,0M55.401,17.646l2.677,0M55.429,17.631l2.623,0M55.457,17.617l2.57,0M55.484,17.603l2.52,0M55.511,17.588l2.459,0M55.539,17.574l2.395,0M55.567,17.56l2.331,0M55.594,17.545l2.268,0M55.623,17.531l2.203,0M55.65,17.516l2.14,0M55.677,17.502l2.076,0M55.705,17.487l2.014,0M55.732,17.473l1.949,0M55.76,17.458l1.886,0M55.788,17.444l1.821,0M55.815,17.43l1.759,0M55.843,17.416l1.68,0M55.871,17.401l1.6,0M55.933,17.387l1.486,0M55.997,17.372l1.37,0M56.06,17.358l1.255,0M56.123,17.343l1.141,0M56.187,17.329l1.024,0M56.25,17.314l0.91,0M56.314,17.3l0.794,0M56.376,17.286l0.653,0M56.44,17.271l0.302,0" stroke="#FFFFFF"/>
     </g>
    </g>
   </g>
  </g>
  <rect  fill="#333333" x="28.432" y="30.468" width="7.937" height="2.268"/>
  <circle  fill="none" stroke-width="1.224" cx="25.2" id="connector2pin" cy="18.052" r="2.052" stroke="#9A916C"/>
  <rect  fill="none" stroke-width="1.224" x="23.148" y="16" width="4.104" stroke="#9A916C" height="4.104"/>
  <circle  fill="none" stroke-width="1.224" cx="32.4" id="connector3pin" cy="18.052" r="2.052" stroke="#9A916C"/>
  <circle  fill="none" stroke-width="1.224" cx="39.6" id="connector4pin" cy="18.052" r="2.052" stroke="#9A916C"/>
  <circle  fill="none" stroke-width="1.1792" cx="42.768" id="connector5pin" cy="10.205" r="2.29" stroke="#9A916C"/>
  <rect  fill="none" stroke-width="1.1792" x="40.478" y="7.915" width="4.58" stroke="#9A916C" height="4.581"/>
  <circle  fill="none" stroke-width="1.1792" cx="32.343" id="connector6pin" cy="10.205" r="2.29" stroke="#9A916C"/>
  <circle  fill="none" stroke-width="1.1792" cx="21.917" id="connector7pin" cy="10.205" r="2.29" stroke="#9A916C"/>
  <g >
   <path  fill="#D2D2D2" d="M0,46.176l0,105.076l7.2,21.601l7.2,0l7.2,-21.601l0,-104.4c0,-0.231,0.026,-0.457,0.068,-0.676L0,46.176z"/>
   <path  fill="#D2D2D2" d="M43.132,46.176c0.042,0.22,0.068,0.445,0.068,0.676l0,104.4l7.199,21.601l7.2,0l7.2,-21.601L64.799,46.176L43.132,46.176z"/>
  </g>
  <g >
   <g >
    <circle  fill="#F0F0F0" cx="10.668" cy="164.938" r="1"/>
   </g>
   <g >
    <circle  fill="#F0F0F0" cx="3.15" cy="136.591" r="1"/>
    <circle  fill="#F0F0F0" cx="10.668" cy="136.591" r="1"/>
    <circle  fill="#F0F0F0" cx="18.15" cy="136.591" r="1"/>
   </g>
   <g >
    <circle  fill="#F0F0F0" cx="3.15" cy="108.245" r="1"/>
    <circle  fill="#F0F0F0" cx="10.668" cy="108.245" r="1"/>
    <circle  fill="#F0F0F0" cx="18.15" cy="108.245" r="1"/>
   </g>
   <g >
    <circle  fill="#F0F0F0" cx="3.15" cy="79.898" r="1"/>
    <circle  fill="#F0F0F0" cx="10.668" cy="79.898" r="1"/>
    <circle  fill="#F0F0F0" cx="18.15" cy="79.898" r="1"/>
   </g>
   <g >
    <circle  fill="#F0F0F0" cx="3.15" cy="51.551" r="1"/>
    <circle  fill="#F0F0F0" cx="10.668" cy="51.551" r="1"/>
    <circle  fill="#F0F0F0" cx="18.15" cy="51.551" r="1"/>
   </g>
  </g>
  <g >
   <g >
    <circle  fill="#F0F0F0" cx="6.927" cy="150.466" r="1"/>
    <circle  fill="#F0F0F0" cx="14.409" cy="150.466" r="1"/>
   </g>
   <g >
    <circle  fill="#F0F0F0" cx="6.927" cy="122.12" r="1"/>
    <circle  fill="#F0F0F0" cx="14.409" cy="122.12" r="1"/>
   </g>
   <g >
    <circle  fill="#F0F0F0" cx="6.927" cy="93.773" r="1"/>
    <circle  fill="#F0F0F0" cx="14.409" cy="93.773" r="1"/>
   </g>
   <g >
    <circle  fill="#F0F0F0" cx="6.927" cy="65.426" r="1"/>
    <circle  fill="#F0F0F0" cx="14.409" cy="65.426" r="1"/>
   </g>
  </g>
  <g >
   <g >
    <circle  fill="#F0F0F0" cx="53.984" cy="164.938" r="1"/>
   </g>
   <g >
    <circle  fill="#F0F0F0" cx="46.466" cy="136.591" r="1"/>
    <circle  fill="#F0F0F0" cx="53.984" cy="136.591" r="1"/>
    <circle  fill="#F0F0F0" cx="61.466" cy="136.591" r="1"/>
   </g>
   <g >
    <circle  fill="#F0F0F0" cx="46.466" cy="108.245" r="1"/>
    <circle  fill="#F0F0F0" cx="53.984" cy="108.245" r="1"/>
    <circle  fill="#F0F0F0" cx="61.466" cy="108.245" r="1"/>
   </g>
   <g >
    <circle  fill="#F0F0F0" cx="46.466" cy="79.898" r="1"/>
    <circle  fill="#F0F0F0" cx="53.984" cy="79.898" r="1"/>
    <circle  fill="#F0F0F0" cx="61.466" cy="79.898" r="1"/>
   </g>
   <g >
    <circle  fill="#F0F0F0" cx="46.466" cy="51.551" r="1"/>
    <circle  fill="#F0F0F0" cx="53.984" cy="51.551" r="1"/>
    <circle  fill="#F0F0F0" cx="61.466" cy="51.551" r="1"/>
   </g>
  </g>
  <g >
   <g >
    <circle  fill="#F0F0F0" cx="50.244" cy="150.466" r="1"/>
    <circle  fill="#F0F0F0" cx="57.725" cy="150.466" r="1"/>
   </g>
   <g >
    <circle  fill="#F0F0F0" cx="50.244" cy="122.12" r="1"/>
    <circle  fill="#F0F0F0" cx="57.725" cy="122.12" r="1"/>
   </g>
   <g >
    <circle  fill="#F0F0F0" cx="50.244" cy="93.773" r="1"/>
    <circle  fill="#F0F0F0" cx="57.725" cy="93.773" r="1"/>
   </g>
   <g >
    <circle  fill="#F0F0F0" cx="50.244" cy="65.426" r="1"/>
    <circle  fill="#F0F0F0" cx="57.725" cy="65.426" r="1"/>
   </g>
  </g>
 </g>
</g>
</g></g><path stroke='#000000' stroke-width='3' stroke-linecap='round' stroke-linejoin='round' fill='none' d='M167.161,158.386L290.748,160.003' />
<path stroke='#ff0000' stroke-width='3' stroke-linecap='round' stroke-linejoin='round' fill='none' d='M167.161,144.696L254.727,145.559' />
<g partID='854135560'><g transform='translate(0,110.699)' ><g xmlns="http://www.w3.org/2000/svg" id="breadboard">
 <rect xmlns="http://www.w3.org/2000/svg" fill="#8C8C8C" x="161.495" id="connector0pin" y="46.1874" width="1" height="2.9999"/>
 <rect xmlns="http://www.w3.org/2000/svg" fill="#8C8C8C" x="161.495" id="connector1pin" y="32.4969" width="1" height="2.9999"/>
 <g xmlns="http://www.w3.org/2000/svg" fill="none" stroke-width="3" stroke-linecap="round" y2="47.689" id="connector0leg" x2="172.827" x1="167.161" y1="47.689" stroke="#000000"/>
 <g xmlns="http://www.w3.org/2000/svg" fill="none" stroke-width="3" stroke-linecap="round" y2="33.998" id="connector1leg" x2="172.827" x1="167.161" y1="33.998" stroke="#FF0000"/>
 <path xmlns="http://www.w3.org/2000/svg" fill="#1A1A1A" d="M161.46,85.2281c0,1.32895,-1.199,2.25192,-2.252,2.25192L2.252,87.48C0.761,87.48,0,86.724,0,85.2281L0,2.25092C0,1.06296,0.928,0,2.252,0l156.956,0c1.22,0,2.252,0.895969,2.252,2.25192L161.46,85.2281z"/>
 <path xmlns="http://www.w3.org/2000/svg" fill="none" stroke-width="1" d="M2.346,62.1199L2.346,9.58067c0,-0.774973,0.425,-1.41695,0.945,-1.41695c0.52,0,0.942,0.641978,0.942,1.41695l1,25.6261c0,0.778973,0.428,1.41695,0.945,1.41695s0.945,-0.637978,0.945,-1.41695l1,-19.8533c0,-0.778973,0.426,-1.41795,0.942,-1.41795c0.521,0,0.944,0.638978,0.944,1.41795l0,15.5995" stroke="#C9C9C9"/>
 <path xmlns="http://www.w3.org/2000/svg" fill="none" stroke-width="1" d="M150.794,59.273l0,15.5995c0,0.778973,0.426,1.41795,0.942,1.41795c0.521,0,0.945,-0.638978,0.945,-1.41795l1,-19.8533c0,-0.778973,0.424,-1.41695,0.944,-1.41695c0.519,0,0.941,0.637978,0.941,1.41695l1,25.6261c0,0.777973,0.428,1.41695,0.945,1.41695c0.517,0,0.945,-0.638978,0.945,-1.41695L158.456,49.1983c0,-0.775973,0.639,-1.41695,1.418,-1.41695l1.604,0" stroke="#C9C9C9"/>
 <path xmlns="http://www.w3.org/2000/svg" fill="none" stroke-width="1" d="M158.464,13.6095l0,18.9713c0,0.777973,0.639,1.41595,1.418,1.41595l1.604,0" stroke="#C9C9C9"/>
 <rect xmlns="http://www.w3.org/2000/svg" fill="#C9C9C9" x="1.865" y="56.5071" width="3.789" height="15.7825"/>
 <rect xmlns="http://www.w3.org/2000/svg" fill="#C9C9C9" x="155.348" y="13.6945" width="3.229" height="15.7855"/>
 <g xmlns="http://www.w3.org/2000/svg">
  <path xmlns="http://www.w3.org/2000/svg" fill="#353535" d="M152.505,37.9987c0,2.34092,-1.913,4.25185,-4.252,4.25185L14.741,42.2506c-2.339,0,-4.252,-1.91093,-4.252,-4.25185L10.489,6.81777c0,-2.33792,1.913,-4.25185,4.252,-4.25185l133.513,0c2.339,0,4.252,1.91393,4.252,4.25185L152.505,37.9987L152.505,37.9987z"/>
  <path xmlns="http://www.w3.org/2000/svg" fill="#CE925D" d="M111.624,2.63191l36.913,0c2.339,0,4.252,1.91093,4.252,4.25185l0,31.1879c0,2.33792,-1.913,4.25185,-4.252,4.25185l-36.913,0L111.624,2.63191z"/>
  <path xmlns="http://www.w3.org/2000/svg" opacity="0.35" enable-background="new    " d="M15.063,40.6256c-1.76,0,-4.006,-1.62994,-4.006,-3.56188L11.057,28.139c0,1.93393,2.246,4.96483,4.006,4.96483l132.544,0c1.761,0,4.006,-3.0309,4.006,-4.96483l0,8.92569c0,1.93393,-2.245,3.56188,-4.006,3.56188L15.063,40.6266z"/>
  <path xmlns="http://www.w3.org/2000/svg" fill="#B2B2B2" d="M152.385,22.1452c0,8.8887,-0.338,16.0924,-0.757,16.0924s-0.419,-32.1839,0,-32.1839S152.385,13.2585,152.385,22.1452"/>
  <path xmlns="http://www.w3.org/2000/svg" fill="#7C7C7C" d="M152.102,27.6311c-0.277,0,-0.277,-11.8916,0,-11.8916l-0.008,0.000999966c0,0.732975,0.594,1.32695,1.328,1.32695l0.6,0c0.732,0,1.327,0.59398,1.327,1.32795l0,6.57577c0,0.729975,-0.595,1.32795,-1.327,1.32795l-0.6,0c-0.734,0,-1.328,0.59398,-1.328,1.32595L152.102,27.6311L152.102,27.6311z"/>
  <g xmlns="http://www.w3.org/2000/svg">
   <g xmlns="http://www.w3.org/2000/svg">
    <path xmlns="http://www.w3.org/2000/svg" fill="#E0E0E0" d="M38.798,19.4223l-0.564,1.69994l-1.787,0l2.986,-8.99169l2.543,0l3.046,8.99169l-1.751,0l-0.587,-1.69994L38.798,19.4223zM40.752,13.4505l-0.024,0l-1.535,4.66584l3.106,0L40.752,13.4505z"/>
    <path xmlns="http://www.w3.org/2000/svg" fill="#E0E0E0" d="M47.306,19.4223l-0.564,1.69994l-1.784,0l2.983,-8.99169l2.543,0l3.046,8.99169l-1.751,0l-0.587,-1.69994L47.306,19.4223zM49.26,13.4505l-0.024,0L47.7,18.1164l3.106,0L49.26,13.4505z"/>
    <path xmlns="http://www.w3.org/2000/svg" fill="#E0E0E0" d="M58.49,21.1253l0,-8.99169l4.477,0c1.763,0,2.647,0.356988,2.647,2.33892c0,1.02796,-0.189,1.72694,-1.28,1.98793l0,0.0509983c1.259,0.143995,1.499,0.971967,1.499,2.10793c0,1.99093,-0.815,2.50691,-2.711,2.50691L58.49,21.1253L58.49,21.1253zM60.217,15.8975l2.479,0c0.975,0,1.188,-0.29999,1.188,-1.25896s-0.384,-1.03196,-1.235,-1.03196l-2.435,0L60.217,15.8975L60.217,15.8975zM60.217,19.6503l2.363,0c1.028,0,1.521,-0.0719975,1.521,-1.17496c0,-0.982966,-0.216,-1.27096,-1.232,-1.27096l-2.65,0L60.217,19.6503L60.217,19.6503z"/>
    <path xmlns="http://www.w3.org/2000/svg" fill="#E0E0E0" d="M71.172,20.3333l-0.036,0c-0.3,0.841971,-1.223,0.86297,-1.955,0.86297c-1.427,0,-2.351,-0.29999,-2.351,-2.00293c0,-1.51095,0.792,-1.93093,2.351,-1.93093c0.768,0,1.523,0.0119996,1.883,0.719975l0.048,0l0,-0.815972c0,-1.01897,-0.084,-1.37895,-1.343,-1.37895c-0.66,0,-1.188,0.0619979,-1.188,0.87497l-1.514,0c0,-1.83494,1.263,-1.90393,2.699,-1.90393c2.018,0,2.854,0.311989,2.854,2.42292l0,3.94286l-1.514,0L71.172,20.3333zM68.341,19.1943c0,0.88797,0.357,0.971967,1.379,0.971967c0.803,0,1.391,-0.0689976,1.391,-0.971967c0,-0.87497,-0.646,-0.898969,-1.391,-0.898969C68.952,18.2944,68.341,18.2944,68.341,19.1943z"/>
    <path xmlns="http://www.w3.org/2000/svg" fill="#E0E0E0" d="M73.358,14.8295l0.792,0l0,-1.42695l1.512,0l0,1.42695l2.41,0l0,1.15096l-2.41,0l0,3.22589c0.014,0.57598,0.014,0.838971,0.646,0.838971c0.852,0,0.756,-0.670977,0.756,-1.32795l1.331,0c0.024,1.90393,-0.456,2.47891,-2.087,2.47891c-1.655,0,-2.159,-0.383987,-2.159,-1.97893L74.149,15.9795l-0.792,0L73.358,14.8295L73.358,14.8295z"/>
    <path xmlns="http://www.w3.org/2000/svg" fill="#E0E0E0" d="M78.458,14.8295l0.792,0l0,-1.42695l1.511,0l0,1.42695l2.411,0l0,1.15096l-2.411,0l0,3.22589c0.012,0.57598,0.012,0.838971,0.646,0.838971c0.854,0,0.757,-0.670977,0.757,-1.32795l1.332,0c0.022,1.90393,-0.457,2.47891,-2.089,2.47891c-1.652,0,-2.156,-0.383987,-2.156,-1.97893L79.251,15.9795l-0.792,0L78.459,14.8295L78.458,14.8295z"/>
    <path xmlns="http://www.w3.org/2000/svg" fill="#E0E0E0" d="M89.927,19.1233c0,1.97893,-1.141,2.07493,-2.938,2.07493c-2.411,0,-2.899,-0.767974,-2.899,-3.20189c0,-2.25492,0.357,-3.23489,2.899,-3.23489c2.593,0,2.938,0.755974,2.938,3.50188l-4.33,0c0,1.35395,0.036,1.78694,1.391,1.78694c0.84,0,1.43,0.0119996,1.43,-0.925968L89.927,19.1233L89.927,19.1233zM88.415,17.3004c0,-1.29496,-0.192,-1.39495,-1.43,-1.39495c-1.308,0,-1.391,0.275991,-1.391,1.39495L88.415,17.3004z"/>
    <path xmlns="http://www.w3.org/2000/svg" fill="#E0E0E0" d="M92.532,14.8295L92.5,15.6575l0.06,0c0.3,-0.695976,0.948,-0.896969,1.679,-0.896969c1.332,0,1.655,0.791973,1.655,1.97893l0,0.503983l-1.415,0l0,-0.323989c0,-0.635978,-0.061,-1.00797,-0.768,-1.00797c-0.899,0,-1.163,0.518982,-1.142,1.33195l0,3.88587l-1.512,0l0,-6.29578L92.532,14.8295L92.532,14.8295z"/>
    <path xmlns="http://www.w3.org/2000/svg" fill="#E0E0E0" d="M100.413,21.3783c-0.351,1.42695,-0.639,2.53891,-2.398,2.53891c-0.216,0,-0.432,-0.0329989,-0.648,-0.0479984l0,-1.13996c0.108,0.0119996,0.22,0.0359988,0.324,0.0359988c0.947,0,1.092,-0.911969,1.227,-1.64594l-0.731,0l-2.075,-6.29578l1.562,0l1.595,5.36082l0.022,0l1.225,-5.36082l1.535,0L100.413,21.3783z"/>
   </g>
  </g>
  <path xmlns="http://www.w3.org/2000/svg" fill="#FFFFFF" opacity="0.35" enable-background="new    " d="M148.381,14.2885c0,1.41695,-1.54,2.56591,-3.44,2.56591L17.615,16.8544c-1.897,0,-3.438,-1.04896,-3.438,-2.46692L14.177,6.65177c0,-1.41795,1.54,-2.66791,3.438,-2.66791L144.94,3.98386c1.9,0,3.44,1.14996,3.44,2.56791L148.38,14.2885z"/>
 </g>
 <g xmlns="http://www.w3.org/2000/svg">
  <path xmlns="http://www.w3.org/2000/svg" fill="#353535" d="M8.499,81.0042c0,2.33792,1.912,4.25185,4.252,4.25185l133.51,0c2.339,0,4.252,-1.91393,4.252,-4.25185L150.513,49.8203c0,-2.33792,-1.913,-4.25185,-4.252,-4.25185L12.751,45.5684c-2.34,0,-4.252,1.91393,-4.252,4.25185L8.499,81.0042z"/>
  <path xmlns="http://www.w3.org/2000/svg" fill="#CE925D" d="M49.664,45.5714L12.751,45.5714c-2.34,0,-4.252,1.91393,-4.252,4.25185L8.499,81.0072c0,2.33792,1.912,4.25185,4.252,4.25185l36.913,0L49.664,45.5714z"/>
  <path xmlns="http://www.w3.org/2000/svg" opacity="0.35" enable-background="new    " d="M145.94,83.6321c1.76,0,4.006,-1.63294,4.006,-3.56288l0,-8.92569c0,1.93393,-2.246,4.96483,-4.006,4.96483L13.395,76.1084c-1.76,0,-4.006,-3.0309,-4.006,-4.96483l0,8.92569c0,1.93393,2.246,3.56288,4.006,3.56288L145.94,83.6321z"/>
  <path xmlns="http://www.w3.org/2000/svg" fill="#B2B2B2" d="M8.618,65.1508c0,8.8887,0.34,16.0924,0.759,16.0924s0.419,-32.1839,0,-32.1839S8.618,56.2641,8.618,65.1508"/>
  <path xmlns="http://www.w3.org/2000/svg" fill="#7C7C7C" d="M8.901,70.6376c0.278,0,0.278,-11.8916,0,-11.8916l0.008,0.000999966c0,0.732975,-0.594,1.32695,-1.325,1.32695L6.981,60.0739c-0.729,0,-1.327,0.59698,-1.327,1.32795l0,6.57677c0,0.730975,0.598,1.32795,1.327,1.32795l0.603,0c0.731,0,1.325,0.59398,1.325,1.32795L8.901,70.6376L8.901,70.6376z"/>
  <g xmlns="http://www.w3.org/2000/svg">
   <g xmlns="http://www.w3.org/2000/svg">
    <path xmlns="http://www.w3.org/2000/svg" fill="#E0E0E0" d="M123.065,65.8337l0.564,-1.70094l1.787,0l-2.986,8.99269l-2.543,0l-3.046,-8.99269l1.751,0l0.588,1.70094L123.065,65.8337zM121.111,71.8065l0.024,0l1.535,-4.66484l-3.107,0L121.111,71.8065z"/>
    <path xmlns="http://www.w3.org/2000/svg" fill="#E0E0E0" d="M114.557,65.8337l0.564,-1.70094l1.787,0l-2.986,8.99269l-2.543,0l-3.046,-8.99269l1.751,0l0.588,1.70094L114.557,65.8337zM112.603,71.8065l0.024,0l1.535,-4.66484l-3.107,0L112.603,71.8065z"/>
    <path xmlns="http://www.w3.org/2000/svg" fill="#E0E0E0" d="M103.374,64.1298l0,8.99269l-4.478,0c-1.763,0,-2.647,-0.355988,-2.647,-2.33892c0,-1.02796,0.189,-1.72794,1.28,-1.98793l0,-0.0499983c-1.259,-0.144995,-1.497,-0.972967,-1.497,-2.10793c0,-1.99193,0.813,-2.50691,2.711,-2.50691L103.374,64.1308L103.374,64.1298zM101.646,65.6058l-2.362,0c-1.028,0,-1.521,0.0719975,-1.521,1.17496c0,0.982966,0.216,1.27096,1.235,1.27096l2.647,0L101.645,65.6058zM101.646,69.3596l-2.481,0c-0.975,0,-1.188,0.29899,-1.188,1.25896s0.384,1.03196,1.235,1.03196l2.435,0L101.647,69.3596z"/>
    <path xmlns="http://www.w3.org/2000/svg" fill="#E0E0E0" d="M90.692,64.9218l0.036,0c0.299,-0.842971,1.222,-0.86397,1.955,-0.86397c1.428,0,2.352,0.29899,2.352,2.00193c0,1.51195,-0.791,1.93193,-2.352,1.93193c-0.768,0,-1.523,-0.0119996,-1.882,-0.720975l-0.048,0l0,0.815972c0,1.01997,0.084,1.37895,1.342,1.37895c0.66,0,1.188,-0.0619979,1.188,-0.87497l1.515,0c0,1.83394,-1.26,1.90293,-2.699,1.90293c-2.014,0,-2.853,-0.311989,-2.853,-2.42192l0,-3.94386l1.511,0L90.692,64.9218zM93.522,66.0607c0,-0.88697,-0.356,-0.970967,-1.379,-0.970967c-0.804,0,-1.391,0.0679977,-1.391,0.970967c0,0.87597,0.645,0.899969,1.391,0.899969C92.911,66.9617,93.522,66.9617,93.522,66.0607z"/>
    <path xmlns="http://www.w3.org/2000/svg" fill="#E0E0E0" d="M88.506,70.4266l-0.792,0l0,1.42795l-1.512,0l0,-1.42795l-2.41,0l0,-1.14996l2.41,0l0,-3.22689c-0.014,-0.57698,-0.014,-0.842971,-0.646,-0.842971c-0.852,0,-0.756,0.674977,-0.756,1.33295l-1.331,0c-0.024,-1.90493,0.456,-2.48091,2.087,-2.48091c1.655,0,2.159,0.382987,2.159,1.97893l0,3.23789l0.792,0L88.506,70.4266L88.506,70.4266z"/>
    <path xmlns="http://www.w3.org/2000/svg" fill="#E0E0E0" d="M83.406,70.4266l-0.792,0l0,1.42795l-1.511,0l0,-1.42795l-2.411,0l0,-1.14996l2.411,0l0,-3.22689c-0.012,-0.57698,-0.012,-0.842971,-0.646,-0.842971c-0.854,0,-0.757,0.674977,-0.757,1.33295l-1.332,0c-0.022,-1.90493,0.457,-2.48091,2.089,-2.48091c1.652,0,2.156,0.382987,2.156,1.97893l0,3.23789l0.792,0L83.405,70.4266L83.406,70.4266z"/>
    <path xmlns="http://www.w3.org/2000/svg" fill="#E0E0E0" d="M71.937,66.1337c0,-1.97993,1.141,-2.07593,2.938,-2.07593c2.411,0,2.899,0.767974,2.899,3.20289c0,2.25592,-0.357,3.23489,-2.899,3.23489c-2.593,0,-2.938,-0.755974,-2.938,-3.50188l4.33,0c0,-1.35395,-0.036,-1.78794,-1.391,-1.78794c-0.84,0,-1.43,-0.0119996,-1.43,0.926968L71.937,66.1327L71.937,66.1337zM73.448,67.9557c0,1.29596,0.192,1.39595,1.43,1.39595c1.308,0,1.391,-0.275991,1.391,-1.39595L73.448,67.9557z"/>
    <path xmlns="http://www.w3.org/2000/svg" fill="#E0E0E0" d="M69.331,70.4266l0.033,-0.826972l-0.06,0c-0.3,0.695976,-0.948,0.895969,-1.679,0.895969c-1.331,0,-1.655,-0.790973,-1.655,-1.97893l0,-0.503983l1.415,0l0,0.323989c0,0.634978,0.06,1.00797,0.768,1.00797c0.899,0,1.163,-0.519982,1.142,-1.33195l0,-3.88587l1.511,0l0,6.29578L69.331,70.4266L69.331,70.4266z"/>
    <path xmlns="http://www.w3.org/2000/svg" fill="#E0E0E0" d="M61.45,63.8768c0.351,-1.42895,0.639,-2.54091,2.398,-2.54091c0.216,0,0.432,0.0329989,0.648,0.0479984l0,1.13996c-0.108,-0.0119996,-0.219,-0.0359988,-0.324,-0.0359988c-0.948,0,-1.092,0.911969,-1.227,1.64594l0.731,0l2.075,6.29578l-1.562,0l-1.595,-5.36082l-0.023,0l-1.225,5.36082l-1.535,0L61.45,63.8768z"/>
   </g>
  </g>
  <path xmlns="http://www.w3.org/2000/svg" fill="#FFFFFF" opacity="0.35" enable-background="new    " d="M12.623,57.293c0,1.41995,1.54,2.56591,3.438,2.56591l127.326,0c1.897,0,3.438,-1.04896,3.438,-2.46692l0,-7.73573c0,-1.41795,-1.541,-2.66791,-3.438,-2.66791L16.063,46.9884c-1.897,0,-3.438,1.14996,-3.438,2.56791L12.623,57.293L12.623,57.293z"/>
 </g>
 <g xmlns="http://www.w3.org/2000/svg">
  <path xmlns="http://www.w3.org/2000/svg" fill="#1A1A1A" d="M8.053,0.142995l1.96,1.52195c0,0,1.398,1.58295,2.616,3.27089c0.726,1.00597,1.334,4.54884,2.23,5.44681c0.899,0.895969,2.182,1.08996,3.271,1.08996c0.303,0,25.249,0,25.552,0c1.09,0,2.37,-0.189993,3.27,-1.08996c0.898,-0.897969,1.509,-4.44085,2.232,-5.44681c1.217,-1.68794,2.616,-3.27089,2.616,-3.27089l1.96,-1.52195L8.053,0.142995z"/>
  <path xmlns="http://www.w3.org/2000/svg" fill="#FFFFFF" opacity="0.2" enable-background="new    " d="M10.883,1.29196l0.511,0.189993c0,0,0,0.706976,1.136,1.45895c0.681,0.448985,1.246,0.644978,2.085,1.04696c0.84,0.399986,2.035,0.485983,3.056,0.485983c0.282,0,26.191,0,26.478,0c1.021,0,2.213,-0.0859971,3.052,-0.485983c0.841,-0.401986,1.408,-0.597979,2.085,-1.04696c1.14,-0.751974,1.139,-1.45895,1.139,-1.45895l0.501,-0.187994L10.883,1.29196z"/>
 </g>
 <g xmlns="http://www.w3.org/2000/svg">
  <path xmlns="http://www.w3.org/2000/svg" fill="#1A1A1A" d="M107.719,0.142995l1.96,1.52195c0,0,1.398,1.58295,2.616,3.27089c0.726,1.00597,1.335,4.54884,2.23,5.44681c0.898,0.895969,2.182,1.08996,3.271,1.08996c0.304,0,25.249,0,25.552,0c1.09,0,2.369,-0.189993,3.271,-1.08996c0.897,-0.897969,1.508,-4.44085,2.231,-5.44681c1.217,-1.68794,2.615,-3.27089,2.615,-3.27089l1.961,-1.52195L107.719,0.142995z"/>
  <path xmlns="http://www.w3.org/2000/svg" fill="#FFFFFF" opacity="0.2" enable-background="new    " d="M110.549,1.29196l0.511,0.189993c0,0,0,0.706976,1.136,1.45895c0.681,0.448985,1.245,0.644978,2.085,1.04696c0.843,0.399986,2.035,0.485983,3.056,0.485983c0.282,0,26.192,0,26.479,0c1.021,0,2.213,-0.0859971,3.053,-0.485983c0.841,-0.401986,1.407,-0.597979,2.087,-1.04696c1.138,-0.751974,1.137,-1.45895,1.137,-1.45895l0.501,-0.187994L110.549,1.29196z"/>
 </g>
 <g xmlns="http://www.w3.org/2000/svg">
  <path xmlns="http://www.w3.org/2000/svg" fill="#1A1A1A" d="M8.053,87.14l1.96,-1.52495c0,0,1.398,-1.58195,2.616,-3.26889c0.726,-1.00597,1.334,-4.54884,2.23,-5.44781c0.899,-0.897969,2.182,-1.08996,3.271,-1.08996c0.303,0,25.249,0,25.552,0c1.09,0,2.37,0.187994,3.27,1.08996c0.898,0.898969,1.509,4.44185,2.232,5.44781c1.217,1.68694,2.616,3.26889,2.616,3.26889l1.96,1.52495L8.053,87.14z"/>
  <path xmlns="http://www.w3.org/2000/svg" d="M10.883,85.9911l0.511,-0.187994c0,0,0,-0.707976,1.136,-1.45995c0.681,-0.448985,1.246,-0.645978,2.085,-1.04496c0.84,-0.400986,2.035,-0.485983,3.056,-0.485983c0.282,0,26.191,0,26.478,0c1.021,0,2.213,0.0849971,3.052,0.485983c0.841,0.397986,1.408,0.59598,2.085,1.04496c1.14,0.751974,1.139,1.45995,1.139,1.45995l0.501,0.184994L10.883,85.9911z"/>
 </g>
 <g xmlns="http://www.w3.org/2000/svg">
  <path xmlns="http://www.w3.org/2000/svg" fill="#1A1A1A" d="M107.719,87.14l1.96,-1.52495c0,0,1.398,-1.58195,2.616,-3.26889c0.726,-1.00597,1.335,-4.54884,2.23,-5.44781c0.898,-0.897969,2.182,-1.08996,3.271,-1.08996c0.304,0,25.249,0,25.552,0c1.09,0,2.369,0.187994,3.271,1.08996c0.898,0.899969,1.508,4.44185,2.231,5.44781c1.217,1.68694,2.615,3.26889,2.615,3.26889l1.961,1.52495L107.719,87.14z"/>
  <path xmlns="http://www.w3.org/2000/svg" d="M110.549,85.9911l0.511,-0.187994c0,0,0,-0.707976,1.136,-1.45995c0.681,-0.448985,1.245,-0.645978,2.085,-1.04496c0.843,-0.400986,2.035,-0.485983,3.056,-0.485983c0.282,0,26.192,0,26.479,0c1.021,0,2.213,0.0849971,3.053,0.485983c0.841,0.397986,1.407,0.59598,2.087,1.04496c1.138,0.751974,1.137,1.45995,1.137,1.45995l0.501,0.184994L110.549,85.9911z"/>
 </g>
 <path xmlns="http://www.w3.org/2000/svg" fill="none" stroke-width="3" d="M161.495,47.6874l5.666,0" stroke="#000000"/>
 <path xmlns="http://www.w3.org/2000/svg" fill="none" stroke-width="3" d="M161.495,33.9968l5.666,0" stroke="#FF0000"/>
</g>
</g></g><g partID='854135590'><line stroke-linecap='round' stroke='#8c0000' x1='254.727' y1='145.559' x2='254.758' y2='102.362' stroke-width='3.2' /><line stroke-linecap='round' stroke='#cc1414' x1='254.727' y1='145.559' x2='254.758' y2='102.362' stroke-width='1.6' /></g><g partID='854135920'><line stroke-linecap='round' stroke='#000000' x1='290.748' y1='160.003' x2='290.758' y2='102.362' stroke-width='3.2' /><line stroke-linecap='round' stroke='#404040' x1='290.748' y1='160.003' x2='290.758' y2='102.362' stroke-width='1.6' /></g><g partID='854136100'><line stroke-linecap='round' stroke='#d6d63a' x1='276.358' y1='102.362' x2='279.526' y2='202.515' stroke-width='3.2' /><line stroke-linecap='round' stroke='#fff800' x1='276.358' y1='102.362' x2='279.526' y2='202.515' stroke-width='1.6' /></g><g partID='854136350'><line stroke-linecap='round' stroke='#000000' x1='269.044' y1='160.023' x2='269.101' y2='202.515' stroke-width='3.2' /><line stroke-linecap='round' stroke='#404040' x1='269.044' y1='160.023' x2='269.101' y2='202.515' stroke-width='1.6' /></g><g partID='854136170'><line stroke-linecap='round' stroke='#000000' x1='290.748' y1='160.003' x2='269.044' y2='160.023' stroke-width='3.2' /><line stroke-linecap='round' stroke='#404040' x1='290.748' y1='160.003' x2='269.044' y2='160.023' stroke-width='1.6' /></g><g partID='854136280'><line stroke-linecap='round' stroke='#8c0000' x1='261.958' y1='102.362' x2='258.675' y2='202.515' stroke-width='3.2' /><line stroke-linecap='round' stroke='#cc1414' x1='261.958' y1='102.362' x2='258.675' y2='202.515' stroke-width='1.6' /></g></svg>